<?xml version='1.0' encoding='utf-8'?>
<svg xmlns="http://www.w3.org/2000/svg" viewBox="0 0 1054 1224.3"> <g transform="translate(159.72 112.43)" stroke="#000"> <path d="m254.09 57.339 40.57-55.516 23.488 51.246 14.947-57.652 21.352 46.975s51.246-85.41 51.246-61.922-6.4057 74.734-6.4057 74.734l44.84-76.869 4.2705 32.029 21.352 34.164s196.44-170.82 222.07-151.6 98.221 179.36 140.93 215.66 57.652 42.705 57.652 42.705h-85.41l38.434 44.84-98.221-38.434s59.787 64.057 51.246 64.057-104.63-36.299-104.63-36.299l51.246 61.922s-44.84-38.434-53.381-40.57-38.434 108.9-38.434 108.9m-397.16-258.36s-143.06-115.3-179.36-117.44-155.87 230.61-187.9 247.69 38.434 10.676 38.434 10.676l-81.139 44.84 98.221-29.893s-59.787 61.922-74.734 70.463 14.947 23.488 38.434 4.2705-27.758 57.652-27.758 57.652l153.74-119.57s12.811-27.758 14.947 12.811 17.082 89.68 17.082 89.68-4.2705 91.815 2.1352 128.11 19.217 119.57 19.217 119.57 204.98-89.68 222.07-93.951 81.139-17.082 100.36-12.811 85.41 44.84 85.41 44.84l134.52 55.516 12.811-29.893s14.947-106.76 10.676-123.84 2.1352-102.49 2.1352-102.49" fill="none" stroke-width="7.7"/> <path d="m87.571 579.78 217.42-95.12s11.507-117.88-33.217-291.4c-20.012-77.642-130.14-66.363-169.1 6.0394-74.436 138.33-18.118 378.97-15.098 380.48z" fill="#fff" stroke-width="10.3"/> <path d="m148.03 556.45 155.15-67.88s8.2116-84.124-23.704-207.95c-14.281-55.407-92.874-47.358-120.68 4.3098-53.119 98.718-12.93 270.44-10.775 271.52z" stroke-width="10.3"/> <path d="m257.33 504.97 46.361-26.837s2.4537-33.259-7.083-82.214c-4.2673-21.905-27.751-18.723-36.059 1.7039-15.872 39.029-3.8635 106.92-3.2196 107.35z" fill="#fff" stroke-width="10.3"/> <g transform="matrix(-1 0 0 1 716.39 -9.0591)" stroke-width="10.3"> <path d="m87.571 579.78 217.42-95.12s11.507-117.88-33.217-291.4c-20.012-77.642-130.14-66.363-169.1 6.0394-74.436 138.33-18.118 378.97-15.098 380.48z" fill="#fff"/> <path d="m148.03 556.45 155.15-67.88s8.2116-84.124-23.704-207.95c-14.281-55.407-92.874-47.358-120.68 4.3098-53.119 98.718-12.93 270.44-10.775 271.52z"/> <path d="m257.33 504.97 46.361-26.837s2.4537-33.259-7.083-82.214c-4.2673-21.905-27.751-18.723-36.059 1.7039-15.872 39.029-3.8635 106.92-3.2196 107.35z" fill="#fff"/> </g> <path d="m306.5 481.64s-206.85 84.551-238.56 107.2-103.31 96.908-125.32 217.42c-14.226 77.902 3.0197 135.89 3.0197 135.89s83.881-158.08 95.96-167.14 6.0394 161.55 6.0394 161.55 57.374-149.47 80.022-157.02 16.608 202.32 16.608 202.32 53.059-236.14 78.727-236.14 11.864 240.66 11.864 240.66 35.137-167.81 53.255-164.79 4.5295 286.87 4.5295 286.87 18.118-246.1 28.687-262.71 13.589 261.2 13.589 261.2 18.118-303.48 34.726-295.93 72.473 137.4 72.473 137.4-10.569-166.08 21.138-146.45 80.022 131.36 80.022 131.36-6.0394-243.09 25.667-193.26 78.771 276.06 78.771 276.06-15.098-255.16 9.0591-232.52 69.453 152.49 69.453 152.49 13.589-223.46-21.138-282.34-78.512-80.022-78.512-80.022l-228.46-106.94-91.627 14.839z" fill="#fff" stroke-width="6.8"/> <path d="m329.15 587.33s-73.982-24.158-55.864-51.335 30.197-64.923 84.551-64.923 73.982 21.138 80.022 43.786-3.0197 83.041-33.217 75.492-25.667-25.667-40.766-22.648-10.569 18.118-34.726 19.628z" stroke-width="7.7"/> <path d="m247.69 633.85s10.676 40.57 38.434 40.57 70.463-10.676 76.869-38.434 2.1352-44.84 2.1352-44.84-10.676 46.975 25.623 68.328 59.787 6.4057 76.869-14.947 12.811-38.434 12.811-38.434" fill="none" stroke-width="6.641"/> <path d="m269.04 574.07-196.44 27.758" fill="none" opacity=".99" stroke-width="6.253"/> <path d="m275.45 614.64-202.85 46.975" fill="none" opacity=".99" stroke-width="6.253"/> <path d="m288.26 640.26-162.28 87.545" fill="none" opacity=".99" stroke-width="6.253"/> <path d="m482.57 567.66 179.36 40.57" fill="none" stroke-width="6.253"/> <path d="m474.02 589.01 170.82 70.463" fill="none" stroke-width="6.253"/> <path d="m478.29 612.5 119.57 104.63" fill="none" stroke-width="6.253"/> <path transform="translate(-23.488 -17.082)" d="m424.91 506.81c0 8.8445-10.038 16.014-22.42 16.014s-22.42-7.1699-22.42-16.014 10.038-16.014 22.42-16.014 22.42 7.1698 22.42 16.014z" fill="#fff" stroke-linecap="round" stroke-width="6.641"/> <path transform="translate(-159.72 -112.43)" d="m429.18 246.36s46.975 74.734 40.57 108.9 19.217-81.139 19.217-81.139l17.082 74.734 17.082-79.004 6.4057 89.68 19.217-89.68 12.811 115.3s-14.947-32.029-2.1352-89.68 17.082-59.787 17.082-59.787" fill="none" stroke-width="3.3"/> </g> </svg>