<?xml version='1.0' encoding='utf-8'?>
<svg xmlns="http://www.w3.org/2000/svg" width="8.62in" height="8.75in" version="1.1" viewBox="0 0 621 630"> <path d="M256.83,95.13h1.35c14.07-13,38.7-21.18,57.43-15.77,10.04,2.9,14.2,13.31,8.74,22.24,25.36-1.43,47.28,12.06,63.38,30.52,12.35,14.17,30.18,42.75,21.87,61.69-2.13,4.85-6.03,5.13-8.39,8.95,14.92,20.65,21.82,47.83,20.31,73.27-.87,14.68-4.39,36.57-24.09,32.8-3,2.62,10.47,4.57,11.53,4.65,38.35,2.96,67.38-9.68,101.34,18.92,2.23,1.88,10.04,11.44,10.82,11.62,3.91.91,13.05-4.32,15.9-7.08,16.48-15.99,3.62-48.67-10.05-62.83-5.26-5.45-12.92-6.57-18.96-11.57-23.33-19.33-19.61-52.82-.96-73.99,5.77-6.55,19.19-16.95,28.31-14.38,4.56,1.28,1.75,7.08,1.73,10.19-.12,17.92,7.89,17.94,14.26,31.15,6.58,13.63,6.28,31.42-2.96,43.83,23.95,21.56,35.11,55.72,22.49,86.47-6.9,16.82-20.06,24.48-35.3,32.8,2.96,12.52,2.83,25.78,7.09,38s12.66,18.88,18.9,29.2c14.27,23.61,24.43,86.22-4.14,102.09-14.71,8.18-53.49,8.9-66.08-3.19-9.57-9.19-4.56-28.32,4.12-36.57,3.52-3.35,13.62-6.69,13.88-11.15.93-15.5-34.58-21.99-44.81-29.08-9.02,21.4-18.34,64.26-41.9,73.79-15.19,6.15-51.89,4.49-60.18-12.41-5.06-10.32-1.36-25.47,7.86-32.51,4.97-3.8,13.67-5.01,16.96-8.94,1.86-2.22,7.72-17.23,6.46-18.97l-54.6,7.83c-6.34,14.43-11.56,29.43-18.31,43.67-8.98,18.97-15,32.4-37.13,37.8-24.25,5.91-77.7-.11-60.99-36.93,5.97-13.15,16.8-12.06,23.81-19.67,6.21-6.74,8.15-18.62,12.16-26.7l-26.29-11.61c-11.79,18.6-24.41,37.16-38.48,54.15-6.77,8.17-17.04,20.62-26.45,25.35-28.52,14.33-92.4-3.49-68.62-43.64,9.41-15.89,22.7-8.85,33.59-20.99,9.12-10.16,15.5-25.88,20.85-38.32-8.74-6.32-17.72-13.38-23.26-22.69-4.44,1.59-8.39,2.83-13.2,1.72-17.78-4.12-36.32-33.35-38.53-50.81-11.9,3.78-18.11-2.6-23.6-12.01-14.7-25.19-12.52-59.13-2.28-85.57-18.33-2.3-12.4-27.77-8.36-39.81,6.05-17.98,17.7-36.11,32.28-48.25-.7-6.88-2.92-13.05-2.65-20.18.45-11.97,7.13-25.96,16.15-33.8,1.86-1.61,8.8-5.61,9.33-6.46.5-.8-.81-5.42-.47-7.79,1.02-7.09,10.94-14.87,16.68-18.49,23.8-15.04,53.15-15.91,79.49-7.02-6.82-12.74-1.77-21.47,12.45-22.23,19.24-1.03,40.54,11.88,49.55,28.71ZM399,191.99c8.56-7.8-3.27-30.8-8.23-38.86-15.72-25.56-38.25-43.31-69.7-41.38-4.89.3-19.51,5.81-14.74-4.57,1.81-3.95,19.1-14.14,5.58-18.57s-34,2.46-44.84,10.76c-2.61,2-10.03,10.45-11.68,10.61-4.33.43-4.81-5.66-6.39-8.41-9.11-15.83-27.89-29.46-46.82-23.45-1.6,5.03,12.58,22.88,4.02,25.21-1.85.5-15.95-5.76-19.69-6.81-20.78-5.81-43.64-4.86-62.6,5.85-3.01,1.7-19.07,11.58-15.1,15.88,27.08-5.43,52.07,11.67,56.44,38.86,40.25-13.69,88.88-8.89,124.42,14.77,24.52-47.62,92.72-28.24,87.4,26.38-2.21,22.67-22.21,38.79-44.4,39.33,15.92,65.16-20.69,127.96-86.03,143.85-55.35,13.46-117.79-.58-146.33-53.5-20.63-38.26-12.19-82.44,5.71-119.95-5.16-.96-10.94-4.36-15.11-7.57-3.92-3.02-6.5-7-10.27-9.99-13.36,12.46-24.84,30.46-29.46,48.27-1.2,4.63-4.54,19.07-.04,22.08,3.69,2.49,7.74-2.26,10.92-1.98l3.08,3.49c-2.25,7.8-5.75,14.22-7.89,22.26-5.33,20.07-6.52,54.29,8.08,70.95,10.59,12.08,10.43-3.95,14.23-7,7.31-5.86,6.69,11.84,7.28,15.1,2.84,15.7,14.42,39.67,30.52,45.33,12.19,4.29.4-11.15,8.6-12.27,5.62-.77,6.29,6.18,8.57,9.9,8.51,13.83,41.54,44.05,57.93,43.81,16.29-.24,50.29-15.33,62.5-26.38,1.89-1.71,10.57-14.07,12.81-7.28,2.42,7.36-6.1,14.6,7.9,13.18,18.63-1.9,44.25-23.74,54.97-38.46,1.87-2.57,8.2-16.66,11.78-11.44l.42,9.29c3.15,3.22,21.16-14.66,23.6-17.56,12.15-14.44,21.03-38.25,22.53-57.02.31-3.85-.64-16.82.57-18.86,4.06-6.86,12.18,12.24,18.86-1.49,10.48-21.56.11-60.98-11.17-81.11-1.79-3.19-8.06-10.46-8.24-13.12-.4-5.9,6.83-5.28,9.99-8.15ZM143.96,167.29l13.48-7.36c-4.59-29.71-41.41-45.84-63.49-22.74-13.77,14.41-14.91,43.88,1.95,56.41,1.98,1.47,11.51,6.55,13.59,6.86,3.63.54,5.98-6.86,8.56-9.1-16.21-5.28-24.46-29.57-10.19-41.2,14.03-11.43,33.33,1.39,36.11,17.13ZM115.93,154.54c-5.09,1.17-8.33,8.1-7.86,12.95.85,8.72,7.61,14.41,14.93,18.21l16.2-15.92c-5.48-8.76-11.14-18.02-23.28-15.24ZM330.04,228.19c27.94.49,45.4-24.26,35.46-50.71-11.67-31.03-55.66-30.61-67.99-.43.06,2.13,9.24,6.82,9.28,10.58l1.91-.57c6.28-12.16,22.59-19.16,34.61-10.52,18.64,13.39,5.56,43.3-16.19,43.48l2.92,8.16ZM202.04,159.24c-126.45,7.57-149.8,208.2-4.89,217.11,73.99,4.55,135.38-40.34,129.03-118.86-5.45-67.38-59.68-102.11-124.14-98.26ZM325.94,182.3c-4.71.98-10.41,7.02-13.53,10.56l11.41,19.46c9.61-1.21,19.5-5.96,19.97-16.86s-8.07-15.19-17.86-13.16ZM527.86,185.8c-19.65,8.46-31.39,32.98-24.47,53.61,8.64,25.8,41.71,29.39,43.02-2.23.82-19.81-11-21.98-16.47-36.35-1.75-4.6-3.45-10.27-2.08-15.04ZM533.42,368.96c39.12-15.74,42.15-61.09,18.45-92.01-1.68-2.19-8.37-10.63-10.58-10.67-.48,0-4.43,1.46-5.59,1.84-.97.32-1.68-.7-1.36,1.38,15.47,16.36,25.44,42.41,16.17,64.29-4.41,10.41-13.69,15.58-23.56,19.9l6.47,15.27ZM507.18,342.45c-10.3-10.21-25.87-17.26-40.17-19.5-23.32-3.66-47.37,3.09-70.51-2.1-1.05,13.61-6.06,28.63-12.48,40.72-6.39,12.02-25.97,37.01-40.72,36.98-1.98,0-5.07-1.74-6.76-.74-.44.26-5.02,6.91-6.18,8.15-11.22,11.98-26.13,23.6-41.48,29.76-10.06,4.04-22.83,8.33-29.77-2.93-8.4,7.31-18.74,11.44-28.2,17.1,8.45,7.91,19.44,12.02,30.03,16.21.85,0,3.06-14,5.04-16.26,2.21-2.51,7.13-1.64,7.46,1.92.31,3.35-4.05,18.21-5.3,22.43-2.62,8.83-9.6,29.71-16.42,35.38-4.31,3.58-12.38,5.12-16.66,9.24-7.68,7.39-9.61,22.86,2.31,26.81-3.98-6.22,3.03-24.65,10.62-24.11,6.58.47-.92,8.33-1.89,10.19-1.82,3.5-3.95,14.83-.42,17.18,1.54,1.02,14.15,1.99,14.81,1.37-2.59-9.29.37-20.95,9.73-24.98,6.82,2.63.81,6.65-.99,10.13-2.76,5.35-2.85,9.95-1.3,15.74,26.46-.67,33.34-11.09,43.61-32.65,11.6-24.36,21.55-50.66,30.14-76.24.76-2.46,4.67-3.42,6.46-1.88,3.31,2.87-4.26,21.22-5.31,25.68,33.52-1.19,66.29-8.33,98.05-18.5-2.13-4.76-6.03-8.77-8.21-13.52s-8.61-24.82-4.37-28.19c8.24-4.12,7.02,7.34,8.62,12.83,5.92,20.3,19.16,34.2,37.56,43.84,14.39,7.54,42.53,12.63,43.57,33,.59,11.52-6.41,11.28-13.28,16.39-10.45,7.77-16.51,25.68-.07,30.01-3.13-6.38,2.6-23.84,10.64-23.17,6.21.52-.65,6.9-1.57,8.64-2.92,5.51-2.04,10.47-1.63,16.35l16.62.94c-3.24-7.68-1.7-25.58,9.25-24.97.91,5.48-3.6,8.8-3.73,14.38-.08,3.42,1.77,7.14,1.88,10.6,10.43-1.63,21.53-4.23,26.35-14.81,7.21-15.82,2.94-52.53-3.45-68.7-7.23-18.27-22.19-28.33-27.26-49.52-6.34-26.5-3.1-47.88-24.65-69.25ZM138.4,538.25h15.26c16.52,0,46.75-43.2,56.33-56.53,5.58-7.76,10.91-15.68,16.17-23.66l-4.78-5.7c-10.34,2.89-22.43,8.61-33.25,7.02-8.45-1.24-20.12-9.49-27.07-14.54-6.96,13.91-18.17,43.08-33.77,48.54-3.58,1.25-8.39,1.31-12.01,2.79-11.54,4.69-17.65,24.48-5.57,31.91-.68-6.1,1.35-11.85,5.18-16.57,1.83-2.26,8.45-8.42,11.08-4.77s-2.89,5.55-4.25,7.24c-3.32,4.14-7.4,16.23-2.74,20.09,1.11.92,9.74,3.17,11.55,3.27,1.92.1,1.19.03,1.39-1.37.77-5.57-.69-9.27,2.57-15.03,1.24-2.19,6.75-8.48,9.35-6.65,3.15,2.21-2.6,8.63-3.65,11.43-1.49,3.98-2.09,8.29-1.81,12.53ZM404,535.37c14.16.58,23.73-4.63,30.58-16.85,9.33-16.63,14.93-37.11,22.04-54.85l-.44-2.2-8.79-6.89-43.53,11.94c-3.47,10.89-3.99,23.93-14.46,30.87-3.94,2.61-9.41,3.44-13.2,6.23-8.59,6.33-11.13,22.07-.07,27.23-1.15-6.57,1.8-20.41,8.58-23.35,2.84-1.23,6.46-.72,5.82,3-7.05,6.05-8.95,15.57-5.01,23.93,3.24-.36,6.42,1.03,9.57,1.08,2.55.05.34-5.04.55-7.78.37-4.67,4.59-14.84,8.67-17.29,2.89-1.73,5.44.17,5.16,3.23-.41,4.43-10.72,13.83-5.48,21.7Z"/> <path d="M399,191.99c-3.16,2.87-10.39,2.25-9.99,8.15.18,2.66,6.45,9.93,8.24,13.12,11.28,20.14,21.65,59.55,11.17,81.11-6.67,13.73-14.8-5.37-18.86,1.49-1.21,2.04-.26,15.01-.57,18.86-1.51,18.77-10.39,42.59-22.53,57.02-2.44,2.9-20.45,20.78-23.6,17.56l-.42-9.29c-3.58-5.22-9.91,8.87-11.78,11.44-10.72,14.72-36.34,36.56-54.97,38.46-14,1.43-5.48-5.82-7.9-13.18-2.24-6.8-10.92,5.57-12.81,7.28-12.21,11.06-46.21,26.15-62.5,26.38-16.39.24-49.42-29.98-57.93-43.81-2.29-3.72-2.96-10.66-8.57-9.9-8.2,1.12,3.59,16.55-8.6,12.27-16.1-5.66-27.68-29.63-30.52-45.33-.59-3.25.04-20.96-7.28-15.1-3.8,3.04-3.64,19.07-14.23,7-14.61-16.66-13.42-50.87-8.08-70.95,2.14-8.04,5.64-14.46,7.89-22.26l-3.08-3.49c-3.19-.28-7.24,4.47-10.92,1.98-4.5-3.01-1.16-17.44.04-22.08,4.63-17.81,16.11-35.82,29.46-48.27,3.77,2.98,6.35,6.97,10.27,9.99,4.16,3.21,9.95,6.61,15.11,7.57-17.9,37.51-26.35,81.69-5.71,119.95,28.54,52.92,90.97,66.96,146.33,53.5,65.34-15.89,101.95-78.69,86.03-143.85,22.18-.54,42.19-16.66,44.4-39.33,5.32-54.62-62.89-74.01-87.4-26.38-35.55-23.66-84.17-28.46-124.42-14.77-4.36-27.19-29.36-44.29-56.44-38.86-3.97-4.3,12.09-14.18,15.1-15.88,18.96-10.71,41.82-11.66,62.6-5.85,3.74,1.05,17.83,7.31,19.69,6.81,8.56-2.33-5.62-20.18-4.02-25.21,18.93-6.01,37.71,7.62,46.82,23.45,1.58,2.75,2.06,8.84,6.39,8.41,1.66-.16,9.08-8.61,11.68-10.61,10.85-8.3,31.61-15.1,44.84-10.76s-3.77,14.62-5.58,18.57c-4.76,10.39,9.86,4.87,14.74,4.57,31.46-1.93,53.98,15.82,69.7,41.38,4.96,8.06,16.79,31.06,8.23,38.86Z" fill="#fff"/> <path d="M507.18,342.45c21.55,21.37,18.31,42.75,24.65,69.25,5.07,21.19,20.03,31.25,27.26,49.52,6.4,16.17,10.66,52.88,3.45,68.7-4.82,10.58-15.92,13.18-26.35,14.81-.12-3.47-1.96-7.19-1.88-10.6.13-5.58,4.63-8.9,3.73-14.38-10.96-.61-12.49,17.3-9.25,24.97l-16.62-.94c-.41-5.89-1.28-10.84,1.63-16.35.92-1.75,7.78-8.12,1.57-8.64-8.04-.67-13.76,16.8-10.64,23.17-16.44-4.33-10.38-22.24.07-30.01,6.88-5.11,13.87-4.87,13.28-16.39-1.04-20.37-29.18-25.45-43.57-33-18.4-9.65-31.64-23.55-37.56-43.84-1.6-5.49-.38-16.96-8.62-12.83-4.24,3.37,2.15,23.37,4.37,28.19s6.09,8.76,8.21,13.52c-31.76,10.17-64.54,17.31-98.05,18.5,1.04-4.46,8.62-22.81,5.31-25.68-1.79-1.55-5.7-.58-6.46,1.88-8.59,25.58-18.54,51.88-30.14,76.24-10.27,21.56-17.15,31.98-43.61,32.65-1.54-5.8-1.46-10.4,1.3-15.74,1.8-3.49,7.81-7.5.99-10.13-9.36,4.03-12.33,15.69-9.73,24.98-.66.62-13.27-.35-14.81-1.37-3.54-2.35-1.4-13.68.42-17.18.97-1.86,8.47-9.72,1.89-10.19-7.59-.54-14.6,17.89-10.62,24.11-11.92-3.95-9.98-19.42-2.31-26.81,4.28-4.12,12.35-5.66,16.66-9.24,6.82-5.68,13.81-26.56,16.42-35.38,1.25-4.22,5.61-19.08,5.3-22.43-.33-3.56-5.24-4.43-7.46-1.92-1.99,2.26-4.19,16.27-5.04,16.26-10.59-4.19-21.58-8.29-30.03-16.21,9.46-5.66,19.8-9.78,28.2-17.1,6.93,11.26,19.7,6.96,29.77,2.93,15.34-6.16,30.25-17.78,41.48-29.76,1.16-1.24,5.74-7.89,6.18-8.15,1.69-1,4.78.73,6.76.74,14.75.03,34.33-24.96,40.72-36.98,6.42-12.09,11.43-27.11,12.48-40.72,23.14,5.19,47.19-1.55,70.51,2.1,14.3,2.24,29.87,9.29,40.17,19.5Z" fill="#fff"/> <path d="M202.04,159.24c64.46-3.86,118.69,30.87,124.14,98.26,6.35,78.52-55.05,123.41-129.03,118.86-144.91-8.91-121.56-209.55,4.89-217.11ZM160.4,198.93c-7.54-5.07-19.53-3.51-25.69,3.07-2.1,2.24-5.08,8.48-.45,8.84,2.49.19,7.89-6.77,13.96-7.41,5.49-.58,13.63,5.16,12.19-4.5ZM247.78,203.59c-1.64,1.64-1.62,5.61.72,6.77,1.7.85,3.77-.65,5.85-.46,4.34.4,8.64,1.85,11.74,4.99,2.92,2.96,3.52,8.33,8.56,6.81,7.12-2.15-3.88-14.46-7.94-16.67-4.45-2.43-14.9-5.47-18.93-1.44ZM142.75,233.17c-11.72,2.71-13.21,29.38-1.85,31.98,19.28,4.41,21.53-36.52,1.85-31.98ZM248.22,241.49c-11.39,2.59-14.99,29.5-1.65,32.71,20.11,4.83,21.49-37.22,1.65-32.71ZM181.22,330.78c-1.86-2.32-3.14-17.19-1.71-19.23,3.68-1.54,7.6-1.96,11.32-3.48,11.36-4.66,30.22-23.35,12.52-32.27-11.95-6.03-45.07-9.83-54.78,1.11-1.79,2.01-2.57,6.6-3.7,7.4-1.32.94-5.99,1.67-8.63,3.4-18.97,12.46-13.14,39.1,4.09,50.18,2.43,1.56,11.47,4.75,11.82,5.29.79,1.21-1.03,5.33,1.96,6.82,6.77,3.37,5.84-5.14,6.59-5.91.31-.31,6.41-1.3,8.43-2.21,2.4-1.08,4.24-3.21,6.73-4.15,15.27,14.15,43.37,9.23,53.34-8.87,2.38-4.33,6.83-18.04.12-19.92-6.3-1.77-4.53,6.8-5.12,10.3-2.12,12.58-19.26,18.84-30.69,17.25-2.34-.33-11.03-4.13-12.31-5.72Z" fill="#fff"/> <path d="M138.4,538.25c-.28-4.24.31-8.55,1.81-12.53,1.05-2.8,6.81-9.22,3.65-11.43-2.61-1.82-8.11,4.47-9.35,6.65-3.27,5.76-1.8,9.46-2.57,15.03-.19,1.39.53,1.47-1.39,1.37-1.8-.1-10.43-2.35-11.55-3.27-4.67-3.85-.58-15.95,2.74-20.09,1.36-1.69,6.83-3.67,4.25-7.24s-9.25,2.51-11.08,4.77c-3.82,4.72-5.86,10.47-5.18,16.57-12.09-7.43-5.97-27.21,5.57-31.91,3.63-1.48,8.44-1.53,12.01-2.79,15.6-5.46,26.81-34.63,33.77-48.54,6.95,5.05,18.62,13.3,27.07,14.54,10.82,1.59,22.92-4.13,33.25-7.02l4.78,5.7c-5.27,7.98-10.6,15.9-16.17,23.66-9.58,13.33-39.81,56.53-56.33,56.53h-15.26Z" fill="#fff"/> <path d="M404,535.37c-5.24-7.87,5.07-17.26,5.48-21.7.28-3.05-2.27-4.96-5.16-3.23-4.08,2.45-8.31,12.62-8.67,17.29-.22,2.73,1.99,7.82-.55,7.78-3.15-.06-6.33-1.44-9.57-1.08-3.94-8.36-2.03-17.88,5.01-23.93.65-3.71-2.98-4.23-5.82-3-6.78,2.94-9.72,16.78-8.58,23.35-11.06-5.16-8.52-20.9.07-27.23,3.78-2.79,9.26-3.62,13.2-6.23,10.47-6.94,11-19.98,14.46-30.87l43.53-11.94,8.79,6.89.44,2.2c-7.12,17.74-12.72,38.21-22.04,54.85-6.85,12.22-16.42,17.43-30.58,16.85Z" fill="#fff"/> <path d="M527.86,185.8c-1.37,4.77.33,10.44,2.08,15.04,5.47,14.36,17.28,16.53,16.47,36.35-1.3,31.62-34.37,28.03-43.02,2.23-6.91-20.63,4.82-45.15,24.47-53.61Z" fill="#fff"/> <path d="M143.96,167.29c-2.78-15.75-22.08-28.56-36.11-17.13-14.27,11.62-6.02,35.91,10.19,41.2-2.57,2.25-4.93,9.64-8.56,9.1-2.08-.31-11.61-5.39-13.59-6.86-16.85-12.53-15.72-42-1.95-56.41,22.08-23.1,58.89-6.97,63.49,22.74l-13.48,7.36Z" fill="#fff"/> <path d="M330.04,228.19l-2.92-8.16c21.75-.18,34.82-30.09,16.19-43.48-12.02-8.64-28.33-1.65-34.61,10.52l-1.91.57c-.03-3.76-9.22-8.46-9.28-10.58,12.33-30.18,56.33-30.61,67.99.43,9.94,26.45-7.52,51.21-35.46,50.71Z" fill="#fff"/> <path d="M533.42,368.96l-6.47-15.27c9.87-4.32,19.15-9.49,23.56-19.9,9.27-21.88-.7-47.93-16.17-64.29-.32-2.08.39-1.06,1.36-1.38,1.16-.38,5.11-1.84,5.59-1.84,2.21.03,8.9,8.47,10.58,10.67,23.7,30.91,20.67,76.26-18.45,92.01Z" fill="#fff"/> <path d="m325.94 182.3c9.79-2.03 18.33 2.29 17.86 13.16s-10.36 15.65-19.97 16.86l-11.41-19.46c3.12-3.54 8.82-9.58 13.53-10.56z" fill="#fff"/> <path d="M115.93,154.54c12.14-2.78,17.8,6.47,23.28,15.24l-16.2,15.92c-7.32-3.79-14.08-9.49-14.93-18.21-.48-4.85,2.77-11.78,7.86-12.95Z" fill="#fff"/> <path d="M229.33,308.95c-6.3-1.77-4.53,6.8-5.12,10.3-2.12,12.58-19.26,18.84-30.69,17.25-2.34-.33-11.03-4.13-12.31-5.72-1.86-2.32-3.14-17.19-1.71-19.23,3.68-1.54,7.6-1.96,11.32-3.48,11.36-4.66,30.22-23.35,12.52-32.27-11.95-6.03-45.07-9.83-54.78,1.11-1.79,2.01-2.57,6.6-3.7,7.4-1.32.94-5.99,1.67-8.63,3.4-18.97,12.46-13.14,39.1,4.09,50.18,2.43,1.56,11.47,4.75,11.82,5.29.16.25.21.63.22,1.07,2.76-.22,5.51-.18,8.26-.03.03-.05.05-.1.08-.13.31-.31,6.41-1.3,8.43-2.21,2.4-1.08,4.24-3.21,6.73-4.15,15.27,14.15,43.37,9.23,53.34-8.87,2.38-4.33,6.83-18.04.12-19.92ZM166.82,334c-24.02,9.48-50.13-30.94-20.69-42.6,7.35,8.03,15.02,17.39,26.4,19.37-2.22,8.61,4.7,19.13-5.71,23.23Z"/> <path d="m248.22 241.49c19.84-4.51 18.45 37.54-1.65 32.71-13.33-3.21-9.73-30.12 1.65-32.71z"/> <path d="m142.75 233.17c19.68-4.54 17.43 36.39-1.85 31.98-11.36-2.6-9.87-29.27 1.85-31.98z"/> <path d="M247.78,203.59c4.03-4.03,14.47-.98,18.93,1.44,4.06,2.22,15.06,14.52,7.94,16.67-5.04,1.53-5.64-3.85-8.56-6.81-3.1-3.14-7.4-4.6-11.74-4.99-2.08-.19-4.14,1.31-5.85.46-2.34-1.16-2.36-5.13-.72-6.77Z"/> <path d="M160.4,198.93c1.44,9.66-6.69,3.92-12.19,4.5-6.07.64-11.47,7.61-13.96,7.41-4.63-.36-1.64-6.61.45-8.84,6.16-6.57,18.15-8.13,25.69-3.07Z"/> <path d="m172.53 310.77c-2.22 8.61 4.7 19.13-5.71 23.23-24.02 9.48-50.13-30.94-20.69-42.6 7.35 8.03 15.02 17.39 26.4 19.37z" fill="#fff"/> </svg>