<?xml version='1.0' encoding='utf-8'?>
<svg xmlns="http://www.w3.org/2000/svg" viewBox="0 0 875.89 656.15"> <defs> <linearGradient id="a" x1="-.012589" x2="1.0126" y1=".5" y2=".5"> <stop stop-color="#5354ff" offset="0"/> <stop stop-opacity="0" offset="1"/> </linearGradient> </defs> <g transform="matrix(.8715 0 0 .85742 55.18 -5.8694)"> <g stroke="#000" stroke-linecap="round" stroke-linejoin="round"> <g stroke-width="5"> <path d="m373.32 570.67 0.2812 0.5625c-41.919 89.379 57.398 128.87 64.156 131.44l0.125 0.25c0.030457-0.064148 0.063477-0.12341 0.09375-0.1875 0.10956 0.040955 0.4375 0.1875 0.4375 0.1875l10.741-43.864c41.92-89.38-68.42-85.569-75.178-88.136l-0.125-0.25c-0.030518 0.06427-0.063354 0.12323-0.09375 0.1875-0.10953-0.040955-0.4375-0.1875-0.4375-0.1875z" fill="#fff" fill-rule="evenodd"/> <path d="m804.55 111.11c32.525-29.199 98.488-61.128 136.65-64.249-66.304 53.079-66.485 85.227-73.308 129.95-6.823 44.722-31.785 104.41-29.228 191.34 2.3341 79.364 32.144 153.89 38.554 200.36 6.4104 46.471 2.5842 85.816 63.078 135.66-37.25-2.3041-119.38-45.231-133.51-58.796-55.168-52.971-35.343-128.25-25.104-171.91 17.702-75.489-25.09-44.893-39.001-98.25 13.911-53.358 55.868-26.254 39.283-100.53-8.5696-38.376-32.234-114.37 22.58-163.58z" fill="url(#a)"/> </g> <g fill="#fff"> <g stroke-width="5"> <path d="m804.88 110.44c32.525-29.199 98.488-61.128 136.65-64.249-66.304 53.079-66.485 85.227-73.308 129.95-6.8229 44.722-31.785 104.41-29.228 191.34 2.334 79.364 32.144 153.89 38.554 200.36 6.4104 46.471 2.5842 85.816 63.078 135.66-37.25-2.3041-119.38-45.231-133.51-58.796-55.168-52.971-35.343-128.25-25.104-171.91 17.702-75.489-25.09-44.893-39.001-98.25 13.911-53.358 55.868-26.254 39.283-100.53-8.5695-38.376-32.233-114.37 22.58-163.58z"/> <path d="m402 128.13c31.92-14.784 57.418-25.23 84.893-32.808 27.475-7.5778 63.489-15.874 122.68-23.67-60.114 47.205-57.401 67.512-37.792 104.92-11.008-5.3933-38.822-20.009-67.305-26.895-34.763-8.4041-51.818-7.2624-79.346-7.4568-27.528-0.19438-46.725 5.3081-55.441 8.1663-8.0203 2.63-3.9184-4.2068 32.314-22.257z"/> </g> <path d="m263.43 242.31a54.353 54.353 0 1 1-108.7 0 54.353 54.353 0 1 1 108.7 0z" stroke-width="5.669"/> <path d="m509.53 364.27c0 57.47-22.2 109.53-58.076 147.21-35.876 37.688-97.634 60.568-123.29 60.885-16.332 0.20178-156.19-33.57-192.07-71.258-41.127-35.165-57.613-61.813-62.64-98.601-1.9651-23.008 18.247-108.21 60.047-144.93 35.876-37.688 145.48-101.54 200.19-101.54 54.706 0 81.887 23.321 117.76 61.01 35.876 37.688 58.076 89.744 58.076 147.21z" stroke-width="5"/> <path d="m417.46 138.94c-38.783 0-75.822 5.6842-109.78 15.944 109.26 33.011 186.53 113.76 186.53 208.12s-77.27 175.14-186.53 208.16c33.959 10.26 70.998 15.945 109.78 15.945 81.781 0 155.86-25.103 209.49-65.667 26.816-20.282 72.347-69.753 131.97-94.258 59.62-24.505 81.268-24.045 81.268-54.967s-27.378-32.119-86.998-61.226c-59.62-29.106-99.422-86.122-126.24-106.4-53.632-40.556-127.71-65.652-209.49-65.652z" stroke-width="5.006"/> </g> <path d="m285.43 234.31a54.353 54.353 0 1 1-108.7 0 54.353 54.353 0 1 1 108.7 0z" fill="#fff" stroke-width="5.669"/> <g stroke-width="5"> <path d="m261.65 253.91a16.508 15.742 0 1 1-33.016 0 16.508 15.742 0 1 1 33.016 0z"/> <g fill="none"> <path d="m301.05 289.23c100.45 203.24-219.75 122.9-219.75 122.9"/> <path d="m286.71 297.04 26.262-13.7"/> </g> </g> <g fill="none" stroke-width="3.5"> <path d="m464.4 102.54c-44.767 18.428-29.577 36.782-29.577 36.782"/> <path d="m539.89 82.965c-82.288 25.162-62.738 59.483-62.738 59.483"/> <path d="m606.89 72.631c-106.29 29.749-88.478 80.429-88.478 80.429"/> </g> <g fill="#fff" stroke-width="5"> <path d="m560.18 739.19c-33.585 62.113-109.38-9.4053-127.88-40.656-20.997-33.278-34.915-77.19 18-160.63 7.3919-9.6929-4.5536-27.644 33.604-24.312 24.736 2.16 3.667 34.484 19.95 51.974 18.013 16.735 37.725 44.57 50.116 69.017 14.302 28.216 23.132 72.162 6.2059 104.61z"/> <path d="m560.18 739.19c-33.585 62.113-109.38-9.4053-127.88-40.656-20.997-33.278-34.915-77.19 18-160.63 7.3919-9.6929-4.5536-27.644 33.604-24.312 24.736 2.16 3.667 34.484 19.95 51.974 18.013 16.735 37.725 44.57 50.116 69.017 14.302 28.216 23.132 72.162 6.2059 104.61z"/> </g> </g> </g> <polyline points="364.12 343.85 364.12 345.85 364.12 347.85 364.12 350.85 365.12 354.85 367.12 359.85 369.12 363.85 371.12 365.85 372.12 366.85" fill="none" opacity=".5" stroke="#000" stroke-linecap="round" stroke-width="5"/> </svg>