<?xml version='1.0' encoding='utf-8'?>
<svg xmlns="http://www.w3.org/2000/svg" enable-background="new 0 0 767.885 710.79" version="1.1" viewBox="0 0 767.88 710.79"> <path d="m745.69 500.3-22.1 0.701 0.6-7.301c2.2-27.1 6.1-67.801 7.7-80.9 4.1-32.699 5.3-51.5 4.7-74-0.601-24.4-2.101-37-7.7-65.5-5.601-28.7-5.8-30.2-8-49.5-2.4-20.7-4.7-31-9.601-42.8-5.8-14.1-11.399-24-19.699-35.1-11.9-15.8-19.101-31.6-29.2-63.6-5.4-17-10.4-27.6-18.601-38.5-8.6-11.6-14.6-17.7-22.3-22.9-16.2-11-29.8-15.7-55.3-19.6-11-1.6-13.3-1.7-23.3-0.5-10.2 1.2-18.9 3.6-30.101 8-15.3 6.1-26.8 13.4-39.399 25-15.8 14.5-22 17.4-42.5 20-22.3 2.9-30 5.4-38.101 12.7-7.1 6.5-11.699 19-10 27.3 0.9 4.4 3 4.8 6.9 1.5 4.1-3.5 8.3-4 16.2-2 4 1 13.7 1.9 25.5 2.4 24.8 1 27.399 2 40 14 5 4.8 10.899 10.1 13.1 11.9 7.101 5.4 9.5 14.4 5.5 20-1 1.5-4.2 7.4-7 13.1-2.899 5.7-7.399 13.8-10.1 18.1-10.3 16.4-15.7 29.9-21.4 53.2-2 7.9-6.2 22.7-9.5 32.9-6.399 20-7.7 26.6-9 46.4-0.8 11.9-1.2 13.9-5 23.1-5 12.3-8.5 25.2-11.1 40.399-3.8 23.101-4.5 32.1-4.5 62.5 0 28.201 0.2 31 2.8 46 4.2 24.301 8.1 37.4 15.4 51 5.699 10.701 13.3 15.801 20.1 13.4 2.4-0.801 3.5-2.1 4.8-5.699 2.4-6.602 3.101-7 4.3-2.602 0.601 2.201 1.7 6.102 2.5 8.9 0.9 2.701 1.301 5.201 1 5.5-1.3 1.201-14.5 0.1-21.6-1.9-4.2-1.1-13.5-4.5-20.5-7.5-31.2-13.1-45.6-17.6-74.4-23-69.399-13.1-68.199-12.799-72.199-16.199-1.601-1.4-5.101-3.6-7.801-4.9-2.899-1.5-5.899-4.1-7.699-6.699-4.4-6.4-10-11.6-13.801-12.801-2.399-0.799-3.399-1.799-3.399-3.199 0-4.301 7.1-23.1 13.399-35.4 9.7-19 10-20.699 10.101-47.9v-23l3.7-6.5c2.1-3.899 4.1-9.1 4.8-12.899 2.6-14.3 6.899-18.4 25.5-24.1 6.1-2 8.3-2.1 17.7-1.6 6.899 0.5 12.899 0.3 16.699-0.5 7.2-1.4 11.7-0.7 16.4 2.6 2.7 1.8 3.8 2.1 4.6 1.2 3.7-4.5 1.2-14.5-4.899-20.1-5.3-4.7-8-6-20.2-9.4-15.7-4.4-17.7-5.8-23.9-16.3-8.5-14.6-26.6-26.3-44.699-28.9-12-1.7-26.4 1.9-37.101 9.3-2.399 1.7-8 4.5-12.3 6.4-4.4 1.8-10.5 5.3-13.6 7.7-6.801 5.2-18.9 17.7-25.5 26.2-4.5 5.7-5.601 6.5-15.5 10.8-13.601 6-32.2 16.2-43.7 24-11.2 7.6-32.7 28.4-39.3 37.9-8.2 12-27.7 48.9-31.301 59.6-1.1 3-3 11.5-4.399 19-3.601 19.301-3.2 18.1-5.9 18.1-1.2 0-8.899-2.199-17-5-8.1-2.699-14.899-5-15.2-5-0.3 0-0.399 2.6-0.199 5.701l0.3 5.6 7 1.9c3.899 1.1 11.399 3.299 16.8 4.898l9.8 3-0.3 38.201c-0.4 36.199-0.5 38.6-2.7 45.699-3.399 11.5-10.8 28.301-15.399 35.1-8 11.9-8.101 11.9-6.801 13.201 0.7 0.699 4.5 1.199 9.4 1.299 5.8 0 9.2 0.602 11.6 1.801 1.9 1 5 1.801 7 1.9 7.9 0.1 24-2.4 31.301-4.701 15.3-5 26.3-5.199 43.8-0.6 7.1 1.801 7.7 2.201 15 9.9 11.2 11.801 16.1 13.801 41.399 16.6 20.101 2.301 24.4 2.1 29.2-1.4 2.9-2.1 5.5-3 10-3.398 6.4-0.701 11.4-2.4 11.4-3.9 0-0.5-0.7-2.201-1.5-3.801-1.4-2.699-1.4-2.9 0.6-3.5 2.3-0.799 14.3 0.1 20.3 1.5 5.2 1.1 7.601-0.199 7.601-4.1 0-4.801-2.601-9.6-8.3-15.4-8.2-8.1-20.101-15.199-31.9-18.9-1.5-0.398-0.8-2.1 4.4-11.299 9.399-16.6 8.399-15.301 12.1-14.701 3.4 0.602 35 8.9 58.2 15.4 7.7 2.1 18.5 5.1 24 6.5 5.5 1.5 14.8 4.301 20.7 6.1l10.6 3.4 60.9 0.5c55.399 0.4 79.3 1.1 80.699 2.5 0.2 0.301 1.4 7.1 2.601 15 2.3 16.5 3.6 21.701 5.2 22.201 0.6 0.199-3.4 2.299-8.801 4.699-34 14.9-43.399 22.6-43.399 35.199 0 3.201 0.5 6.102 1 6.4 0.6 0.301 4.3-0.5 8.399-1.9 4.101-1.398 8.7-2.6 10.301-2.6h3l-0.101 6.701-0.1 6.799 13.5-0.299c7.5-0.201 20.2-1.4 28.5-2.701 8.3-1.299 20.5-2.9 27.2-3.4 6.699-0.6 13.3-1.5 14.699-2.1 2.9-1.1 7.601-7.1 11.601-15.1l2.899-5.6 9.9 2.299c5.4 1.301 11.2 2.801 12.8 3.4 2.8 1.1 2.8 1.201 1 2.6-1.1 0.701-7.6 3.201-14.5 5.5-12.6 4-20 7.801-29.8 15.102-5.8 4.299-8.6 8.6-8.1 12.6l0.3 2.699 13.2-0.4c12.399-0.299 13.199-0.199 14.199 1.701 0.601 1.199 1.101 3.699 1.101 5.6 0 3.4 0.2 3.6 3.399 3.6 1.9 0 7.2-0.9 11.801-1.9 4.6-1.1 14.8-2.699 22.8-3.6 17.6-2 30.399-4.6 36.2-7.6 9-4.5 13.6-8.699 16.899-15.5 2.9-5.9 3.4-6.4 6.4-6.4 1.8 0 5.899-1.299 9.1-3 3.2-1.6 6.3-3 6.8-3 0.4 0 3 1.6 5.801 3.6 7.3 5.4 18.199 9.701 24.199 9.5 3.601 0 6.9 0.801 12.5 3.301 6.7 3 9 3.5 19.301 4.199 10.8 0.602 11.899 0.5 15-1.398 3-1.9 4.399-2.102 12.1-1.5l8.7 0.6v-2.703c0-1.5 0.7-2.898 1.5-3.199 1.1-0.5 1.5-2.199 1.5-6.6 0-5.6-0.3-6.4-6.4-15.6-3.5-5.301-8.7-12.301-11.5-15.602-2.899-3.199-5-6.1-4.7-6.398 0.301-0.201 3.301 0.1 6.601 0.799 4.5 1 6.399 1 7.2 0.201 1.8-1.801 0.699-2.201-9-3.701-11.301-1.699-15.101-3.4-20.801-9.799-10.8-12.102-17.199-27.5-18.1-44.201l-0.6-10.299 4.399-0.602c9.8-1.398 27-2.6 35.9-2.6 5.2 0 11.2-0.299 13.3-0.6 3.4-0.6 3.7-0.9 3.7-4.1v-3.5l-16.2 0.699c-9 0.4-21.2 1.1-27.3 1.5-6 0.5-11.101 0.701-11.3 0.6-0.601-0.6 7.899-51.1 8.699-51.898 0.5-0.5 11-1.102 23.5-1.4l22.601-0.6v-9l-22.198 0.8zm-505.6-19.099c1.8 0.4 4.899 1.699 7 3.1 4.8 3.201 12.5 14.5 9.899 14.5-0.5 0-3.3-2.4-6.3-5.4-3.5-3.5-6.8-5.799-9.6-6.699-3.5-1-4.2-1.699-4.2-3.699 1e-3 -2.203 0.3-2.402 3.201-1.802zm8.8 13.5c0 0.801-10.601-0.199-11.601-1.199-0.399-0.301-0.399-1.301-0.1-2.201 0.9-2.199 5.9-1.9 9.1 0.6 1.4 1.1 2.601 2.399 2.601 2.8zm64 78.599c-7.7-2.699-22-10.6-28.101-15.5-3.5-2.9-7.5-5.6-8.899-6.199-1.8-0.6-31-3.6-37.7-3.801-0.2 0-0.3 0.4-0.3 0.9 0 1.199 7.3 2.801 20.6 4.6 6 0.801 12.101 1.801 13.5 2.4 2.7 1 17.2 13.1 16.5 13.801-0.5 0.5-9.8-4.102-14.7-7.4-2-1.301-7-3-11.5-3.9-11.399-2.199-19.8-4.199-29.1-7l-8.3-2.5v-5.9c0-6.9 2-17 5.7-29.299l2.699-8.9 4 0.699c2.301 0.301 10.601 1.5 18.601 2.6 13.6 1.801 46.2 7.4 70 12 23.6 4.602 56.6 13.701 78 21.701 11.8 4.299 24.6 8.699 28.3 9.699s7 2.201 7.2 2.6c0.8 1.201-18.101 2.201-30.5 1.602-9.7-0.5-13.9-1.301-27-5.102-14.101-4.199-16.3-4.6-25.5-4.5-5.5 0.102-12.101-0.199-14.601-0.6-6.199-0.9-7.399 1-1.699 2.6 2.399 0.602 6.399 1.701 9 2.5 2.6 0.801 6.399 1.4 8.5 1.4 3.399 0 28.899 6.301 30 7.4 0.3 0.199-1.9 0.9-4.9 1.5-2.9 0.6-11.4 2.4-18.8 4s-17.101 3.6-21.5 4.5c-4.4 0.801-12 2.4-16.9 3.4-7.6 1.699-9.501 1.799-12.6 0.699zm114 8.5c-18.4 0-45.2 0.5-59.5 1.1-22.5 1-26.5 0.9-29.5-0.299l-3.5-1.5 2.5-1c8.7-3.6 45.8-11.5 64.8-13.801 13.5-1.6 60.8-5.4 64.7-5.1 1.6 0.1 2.6 1.801 4.7 8.1 1.5 4.4 2.699 8.701 2.699 9.6 0.101 2.4-8.1 2.9-46.899 2.9z"/> <path d="m713.19 423.3c15.1-30.299 17.7-45.6 11.2-64.5-3.3-9.6-5.4-18-10.4-41-4.2-20-9-35.3-14.7-47.7-5.199-11.3-12.1-29.2-12.8-33.4-0.6-3.6-0.6-3.7 4.8-5.8 10.801-4.4 14-11.9 11.801-27.4-2.301-15.6-6.601-25.6-19.2-44.8-4.4-6.6-8.601-14.1-9.3-16.7-1.301-4.2-1.5-4.4-2.101-2.4-1.2 3.6 0.101 8.5 6 23.2 3 7.4 6.601 17.6 8 22.8 3 11.2 4.2 22.2 2.5 22.2-0.6 0-1.1-1.5-1.1-3.3 0-8.1-6-22-15.5-35.8-9.9-14.3-10.5-16.2-10.5-32.4 0-12.5-0.3-14.7-2.601-21-1.399-3.9-4.6-14.4-7.1-23.5-7.8-28.7-12.7-38.9-25.1-52.1-16.801-17.9-28.801-24-57.9-29.4-7.5-1.4-15-2.5-16.7-2.5l-3.1 0.1 3.6 1.9c2 1 10.101 3.5 18 5.5 16.2 4.1 26.2 7.8 35.2 13.1 23.3 13.6 34.5 31.1 44.2 68.8 3.1 12.1 3.399 15.6 1.5 15.6-0.4 0-3.3-7.5-6.4-16.8-7.1-20.9-11-28.9-18.1-37.5-12.8-15.5-30.3-25.3-49.2-27.7-15-1.9-37.4 2.5-54.3 10.7-8.101 3.9-10.7 5.8-17.2 12.7-4.3 4.4-7.8 8.3-7.8 8.7 0 0.9 22 7.2 22.7 6.5 0.3-0.3-1.101-1.3-3.101-2.1-3.1-1.3-3.6-1.9-3-3.8 2.5-8.3 7.3-14.6 13.5-17.8 7.601-3.8 22.3-1.7 35.9 5.1 3 1.5 7.399 3.3 9.8 4 2.3 0.7 4.2 1.9 4.2 2.5 0 0.7-1.9 2.8-4.3 4.8-2.4 1.9-8.301 7.5-13.2 12.4-15.8 15.6-39 27.3-70.7 35.8-3.8 1-6.8 2.1-6.8 2.4s2 1.9 4.399 3.4c6.301 3.9 11.4 9.9 12.2 14.3 0.7 3.7-0.3 9.2-2.7 15.2-1.6 3.9-1.199 4.3 7.101 7 4.5 1.4 9.2 1.7 25 1.7 21.5-0.1 25.8-0.6 56-7 33-6.9 38.8-6.9 51 0.3 6.8 4 11.399 9.3 13 15.1 2.8 9.7 5.3 31.2 5.3 44.6 0 12.3-2.2 30.5-4.9 42.1-0.5 1.9-0.199 2.1 2 1.7 2.4-0.5 2.601-0.3 2.601 3.5 0 2.1 0.7 7.9 1.6 12.8 7.3 41.5 6.2 58.4-6.6 102.4-8.5 29.301-9.2 33.301-9.7 57.1-0.7 29.102 1.5 49.801 8.3 78.9 5.8 24.9 15 46.6 23.7 55.701 5.4 5.799 11.7 9.699 14.5 9.1 1.2-0.301 0.4-1-2.2-2.301-6-2.9-10.2-7.799-15-17.299-14.7-29.4-23.6-72.4-23.6-114.7 0-21.699 2.6-38.299 10.2-66 7.6-27.5 9.8-39.2 10.399-54.5 0.601-14.1 0.101-18.1-5.7-46.2l-2.199-10.6 2.1-4.9c1.5-3.5 1.9-6 1.5-9.1-0.5-3.9-0.4-4.2 1.8-4.2 2.9 0 8.9 3.1 14.3 7.3 5.2 4.1 17.7 21.1 21.7 29.3 3.3 7.1 7 21.3 11.4 43.8 1.5 7.7 4.399 20 6.6 27.5 7.9 27.301 6.101 42.4-8.399 67.6-8.2 14.5-11.101 21.201-14.101 32.6-6 22.801-6.6 45.102-2.2 74.4 2 12.701 2.801 22.4 2.9 33 0.3 21-1.2 24.5-10.3 24.5-8.2 0-14.8-5-22.7-17.199-18.8-29-31.5-89.301-29.9-141.3 0.7-23.699 2.801-35.899 9.101-52.5 7.1-18.899 6.899-17.2 3.1-26-8.3-18.7-18-56-19.6-74.7-0.5-6-0.9-19.4-0.9-29.8 0-22.2-1.8-33.2-7.5-45.1-4.3-9.2-10.3-15.2-19.2-19.5-6-2.8-8.199-3.3-17-3.7-6.6-0.3-13.3 0.1-19.5 1.1-19.1 3.3-31.1 4.1-41.6 2.9-10.2-1.2-20.6-3.9-28-7.4-2.3-1.1-4.6-1.7-5.2-1.4-2 1.3-10.2 13.7-14.5 22.1-5.6 10.8-9.6 22.7-14 41.5-1.899 8-5.399 22.4-7.899 32.1-7.301 28-8.2 36.3-8.101 72.9 0 36.5 2.3 68.3 9 123 4.2 34.6 9.9 57 24.4 95.5 10 26.5 11.7 32.701 13.5 48.1 1.899 17.102 2.8 20.4 6.3 24.602l2.7 3.199 0.5-4.4c0.7-6.4 3-6.299 6.5 0.1 1.5 2.9 4.3 6.9 6.2 9 3.5 3.801 12.3 8.9 15.399 8.9 1.601 0 1.601-0.5-0.6-5.299-3.2-7-3.4-9-1.101-9.5 1.2-0.301 3.5 1.199 6.5 4.1 5.4 5.299 10.601 8.5 18.101 11.5 6.1 2.4 19.899 5.699 20.6 4.9 0.3-0.301-1.5-1.9-3.899-3.701-4.2-3-12.7-13.1-12.7-15.1 0-2.9 5 0.301 13.7 8.699 11 10.9 20.399 18.4 22.699 18.4 2 0 2-0.199-0.3-4.199-2.7-4.701-3.5-10.201-1.7-11.701 1.101-0.898 2.101 0.102 5.5 5.102 5.2 8 10.801 14.398 11.601 13.6 0.399-0.301-0.101-2-0.9-3.701-2-3.699-2-4.1-0.1-4.1 0.8 0 4.1 2.4 7.5 5.4 6.3 5.6 10.8 7.9 9.399 4.801-1.199-2.701-1.699-10.201-0.699-10.201 0.5 0 2.899 2.1 5.3 4.6 2.5 2.5 6.5 5.801 9 7.201 3.899 2.299 5.6 2.699 12.7 2.699h8.199l4.101-4c4.3-4.199 8.3-11.799 13-24.6 1.6-4.199 5.5-13 8.8-19.5 7.7-15.5 14.7-33.301 17.3-44.199 1.9-7.602 2.101-10.701 1.601-25.701-0.301-9.4-1.301-22-2.301-28-2.1-13.6-2.399-43.6-0.5-54.5 2.101-12.099 7.4-26.5 15.4-42.5z" fill="#fff"/> <path d="m542.1 54.001c5.1 1.5 9.8 5.9 9.8 9.1 0 3.3-3.601 7.6-7.601 9.3-7.6 3.2-15.899 0.5-19-6-2.899-5.9 0.2-10.8 8.101-12.7 4.299-1 4.399-1 8.7 0.3z" fill="#fff"/> <path d="m453.4 61.401c-1.9 3-2.8 3.3-20.2 8.1-7.6 2-14 3.8-14.2 4-1.7 1.2 4.101 1.1 30-0.7 32.4-2.2 40.2-2.4 37.9-1.1-1.7 1-25.2 2.7-57 4.1-22 1-33 2.5-35.601 5.2-1.3 1.3 2.5 1.4 32.801 1.3 18.899-0.1 31.8 0.2 28.8 0.6s-10.2 1.4-16 2.3c-12.2 1.8-22.601 2-29 0.5-2.5-0.6-7.8-1.1-11.8-1.2-6.9-0.2-7.301-0.1-9.801 2.8l-2.5 3 0.5-3.4c0.9-5.2 6.301-12.8 12.101-17.2 5.3-4 13.5-7.6 13.5-5.9 0 0.6-0.4 1-0.9 1s-2.399 1.2-4.1 2.6c-4.5 3.9-2.3 5.6 2.7 2.1 5.3-3.6 12.199-6.4 19-7.7 3.199-0.6 10.1-1.8 15.3-2.8s9.7-1.4 9.8-1c0.2 0.5-0.401 2-1.3 3.4z" fill="#fff"/> <path d="m654.4 286.7c0.399 3.6 0.3 6.7-0.3 7.8-1 1.6-1.2 1.5-2.101-1-1.2-3.1-1.399-8-0.5-11.4 1-3.6 2.2-1.8 2.901 4.6z" fill="#fff"/> <path d="m224.49 286.3c2.8 1.7 6.601 5.8 11.7 12.7 11 15 15 18.8 25.7 24.2 5 2.5 9.8 4.6 10.6 4.6 1.9 0 1.8 1.3-0.5 5.2-1.1 1.8-2.7 6.4-3.5 10.1-2 8.4-3.399 11.2-8.1 15.7l-3.601 3.5h-25.399l-8-4c-4.4-2.299-12-6.299-17-9-8.9-4.9-9.101-5-19.5-5.3-14.101-0.5-20.101 1.6-44 15.2-19.5 11.2-23.7 14.4-29.101 22.301-1.8 2.6-4.699 6.5-6.5 8.5-7.899 8.898-8.399 13.898-2.5 25.1 4.101 7.799 5.2 13.5 3.101 16.699-0.7 1.1-1.101 0.9-1.9-1.299-0.6-1.602-1.1-3.102-1.1-3.4 0-0.301-1.9-4.6-4.101-9.6-5.699-12.301-5.399-15.4 2.801-26.801 3.399-4.6 8.5-12.699 11.399-17.9 5.9-10.399 14.7-20.399 24.3-27.6 8.4-6.4 11.801-7.9 24.801-11.4 19.8-5.4 24-8.9 27.3-22.2 4.5-18.7 12.2-27.7 23.899-27.8 3.501 0 6.201 0.7 9.201 2.5z" fill="#fff"/> <path d="m270.6 285.7c2.3 1.1 4.699 3 5.399 4.3 1.101 2.2 1.101 2.2-0.7 0.6-2.8-2.5-8.8-4.8-12.399-4.8-4.5 0-8.9 2.6-9.601 5.7-0.6 2.3-0.1 3.2 3.101 6 2.2 1.9 4.899 3.6 6.1 3.9 1.8 0.5 11-1.3 21.9-4.3 1.5-0.4 1.7-0.2 0.899 0.6-1.5 1.7-22.199 6.2-25 5.5-2.5-0.6-10.399-8.6-10.399-10.4 0-2.2 2.2-5.2 5.3-7 3.999-2.5 9.999-2.5 15.4-0.1z" fill="#fff"/> <path d="m267.6 289.3c4.1 1.7 3.6 3.1-1.301 4.1-3.8 0.7-7.199-1.9-5.3-4.2 1.401-1.8 2.101-1.8 6.601 0.1z" fill="#fff"/> <path d="m322.69 298.3c7.4 1.9 15.2 4.5 17.5 5.7 4.6 2.5 11.7 11.2 11.7 14.2 0 1.8-0.3 1.7-2.7-0.6-3.8-3.6-6.8-4.6-17.6-5.8-8.7-1-26.801-3.6-44.2-6.5l-8-1.3 7-0.1c9.8-0.2 50 3.2 54.1 4.5 1.8 0.5 1.8 0.5 0.101-0.9-0.9-0.8-5.7-2.2-10.5-3.2-10.801-2.1-20.601-4.9-26.301-7.4l-4.399-2h5c2.799-0.1 11 1.5 18.299 3.4z" fill="#fff"/> <path d="m304.29 310.3c1.301 0.2 5.601 0.9 9.7 1.5 11.4 1.6 17.9 3 17.9 4.1s-4.7 1.1-15.3 0.3c-4.9-0.5-7.7-1.1-7.7-1.9 0-0.6-2.5-1.8-5.5-2.5-5.5-1.3-9.101-3.6-4.101-2.5 1.401 0.3 3.701 0.7 5.001 1z" fill="#fff"/> <path d="m241.49 370.7c-10.399 1.5-11.6 1.301-24.6-4.5-7.601-3.4-9.5-3.8-18-4.1-11.101-0.4-15.9 1.1-24.4 7.6-5.399 4-12.2 13.4-20 27.4-2.1 3.699-5.6 9.1-7.8 12-5.1 6.699-4.9 8.1 3.4 30.699 8.1 21.6 9.8 29.6 9.8 45.4 0 18.4-1.9 28.1-7.9 40.199-8.7 17.5-17 21.701-25.7 13-4.5-4.5-5.399-8.5-6.399-29.6-1-21.299-2-25.4-11.3-48.5-5.301-13.1-6.101-16-6.5-23.4-0.301-6-0.7-7.898-1.4-6.699-2.6 4.699-7 20.4-9.8 34.9-9.7 50.799-11.2 53.9-34.101 73-3.5 2.799-6.699 6.699-8.5 10.1-2.8 5.4-2.8 5.5-1.1 9 2.1 4.4 8.2 8.5 18.3 12.199 4.601 1.701 8.601 3.9 10.2 5.602 7.3 8.1 19.2 17.199 27.7 21.5 7.8 3.799 10.3 4.5 17.1 5 11.7 0.799 15.7-0.602 22.4-7.801 3-3.199 5.8-5.9 6.2-5.9 0.399 0 0.5 1.5 0.199 3.201l-0.6 3.299 2.8-3.199c2.9-3.301 12.2-10.301 13.601-10.301 1.699 0 0.6 3-2.801 7.4l-3.5 4.699 2.801-0.699c9.699-2.301 26.399-7.9 30.1-10 5.2-3.1 12.5-13.199 19.4-27 5-10.1 5-10.199 6.899-27.5 2.101-19.5 5.3-33.699 10.9-48.4 2.1-5.5 5.5-14.5 7.5-20s7-16.4 11.1-24.199c10.101-19.201 10.5-20.801 11.101-39.9 0.801-25-0.499-26.8-17.1-24.5z" fill="#fff"/> <path d="m146.69 377.4c0.2 1.2-1.4 4.2-3.8 7.101-4.9 6.199-7 11-7 15.898 0 6.801 5.2 26.801 10.1 39.201 7.9 19.699 10 28.1 10.601 41.199 1 21.6-4.301 40.5-14.2 50.701-2.8 2.898-5.8 5.299-6.601 5.299-0.899 0 0.9-2.5 4.101-5.799 4.7-4.801 6.2-7.301 8.7-14.301 4.699-12.699 5.6-19.301 5.1-33.199-0.6-13.801-2.8-21.9-12.3-45.201-7.601-18.699-9.601-25.799-9.7-34.5-0.2-10.299 2.3-17.799 8-24.1 4.599-5.099 6.499-5.699 6.999-2.299z" fill="#fff"/> <path d="m36.494 579.9c-2 3.301-3.6 6.602-3.6 7.301 0 1.5-7.9 8.1-8.7 7.301-0.2-0.301 1.8-3.5 4.5-7 2.8-3.602 6.3-8.9 7.8-11.801 1.9-3.5 3-4.699 3.2-3.5 0.201 0.9-1.2 4.4-3.2 7.699z" fill="#fff"/> <path d="m47.895 572.3c0 2.4-2.5 6.701-5.5 9.5l-2.7 2.5 3.3-6.799c3.199-6.5 4.9-8.3 4.9-5.201z" fill="#fff"/> <path d="m50.395 582.6c-1.7 4.699-9.601 13.199-12.3 13.199-0.7 0-2.601 0.701-4.2 1.5-3.8 2-3.9 0.5-0.2-1.699 5.6-3.4 11.2-9 14.3-14.5 3.699-6.4 4.999-5.6 2.4 1.5z" fill="#fff"/> <path d="m60.194 586c-2.6 3.799-11.3 10.799-13.5 10.799-0.5 0 2.8-4 7.4-8.9 8.4-9 11.6-10 6.1-1.899z" fill="#fff"/> <path d="m71.294 581.7c0.801 1.199-4.6 9.199-8.199 12.301-3.301 2.799-13.101 6.898-16 6.699-0.9-0.1-0.101-0.6 1.899-1.301 6.4-2 12.9-7.5 17.5-14.799 2.401-3.801 3.8-4.6 4.8-2.9z" fill="#fff"/> <path d="m76.895 586.8c-0.601 1-2.8 4-5 6.5s-4 5-4 5.6c0 0.5-0.601 0.9-1.4 0.9-3.1 0-2.6-2.199 1.3-6.299 2.2-2.301 4.9-5.4 6.101-7 2.398-3 4.699-2.8 2.999 0.299z" fill="#fff"/> <path d="m80.294 594.3c-4.899 6.4-6.5 6-2.6-0.6 2.8-4.699 3.8-5.699 4.4-4.5 0.6 1.1 0.1 2.7-1.8 5.1z" fill="#fff"/> <path d="m87.895 593c0 1.6-3.101 4.799-4.7 4.799-1 0-0.7-0.9 0.9-3 2.3-3.099 3.8-3.799 3.8-1.799z" fill="#fff"/> <path d="m210.1 593.9c5.5 2.102 11.8 6.4 11.8 7.801 0 2-2.9 1.699-9.5-1-10.2-4.1-13.8-3.801-5.8 0.5 6.399 3.4 16.5 10.699 15.899 11.301-0.2 0.199-3.7-0.701-7.8-2.102-7.4-2.5-11.1-3.199-32.9-6.1-6.3-0.799-13.699-2.299-16.5-3.199l-4.899-1.701 10.5-1.799c5.8-1 14.1-2.701 18.5-3.701 10.5-2.5 14.399-2.5 20.7 0z" fill="#fff"/> <path d="m41.895 598.3c0 0.801-0.4 1.5-0.9 1.5s-1.1-0.699-1.5-1.5c-0.3-0.9 0-1.5 0.9-1.5 0.799 0 1.5 0.701 1.5 1.5z" fill="#fff"/> <path d="m156.1 605.7c4.6 1.699 12.8 4.301 18.3 6 10 3 17.5 7 22.8 11.9 5.3 5 3.6 4.9-11.8-1.1-11.2-4.301-26.7-8.201-29.2-7.301-1.5 0.699-1.3 1 1.8 2.6 2 1 8.7 3.701 15 5.801 6.3 2.199 12.7 4.6 14.3 5.299l2.9 1.4-3.1 0.6c-1.801 0.4-8.801 0.102-15.7-0.699-26.4-2.699-34.2-5.9-39.5-16.301-2.3-4.6-2-6.1 1.3-6.1 1.2 0 4.5-1.1 7.2-2.4 2.8-1.398 5.5-2.5 6.2-2.5 0.699-0.1 4.899 1.201 9.5 2.801z" fill="#fff"/> <path d="m234.19 608.9c2.1 1.701 4.5 4.5 5.3 6.201l1.601 3-4.301-3.201c-2.399-1.898-5.899-4.199-7.6-5.299-1.8-1.1-3-2.4-2.7-2.9 1-1.7 4-0.901 7.7 2.199z" fill="#fff"/> <path d="m210.69 615.3c2.9 0.9 5.2 2.1 5.2 2.701 0 0.6-0.9 0.799-2.2 0.398-1.3-0.299-3.5-0.6-4.9-0.6-1.5 0-3.699-0.9-5-2-2.3-1.9-2.3-1.9-0.3-2 1.101 1e-3 4.401 0.702 7.2 1.501z" fill="#fff"/> <path d="m684.9 637.9c1.899 6.9 5.6 11.801 18.8 24.701 6.9 6.699 11.6 11.9 10.6 11.6-3.899-1.4-11.199-7.5-21-17.6-11-11.1-13.8-16.301-11.5-20.701 0.7-1.1 1.4-2.1 1.601-2.1s0.898 1.901 1.499 4.1z" fill="#fff"/> <path d="m506.1 642.8c9.3 5.6 16 8 22.699 8 6.4 0 12.101 1.1 12.101 2.201 0 2-7.5 10-11.4 12.299-6.3 3.701-42.899 12.5-54.8 13.201-6.4 0.398-9.8 0.199-9.8-0.4 0-1.201 7.8-4.201 19-7.301 12.6-3.6 17-5.1 17-6.1 0-0.5-2.601-0.9-5.9-0.9-5.899 0-17 2.801-26.8 6.801-3.7 1.5-5.3 1.799-5.3 0.9 0-2.9 4.5-8.102 10.7-12.5 8.399-6 12.899-9.9 12.3-10.602-1-1-20 6-40.2 14.801-2.1 0.9-3.8 1.199-3.8 0.699 0-3.299 15.3-12.1 33-19 5.8-2.299 12.3-5 14.5-6.1 5.099-2.399 6.599-2.098 16.7 4.001z" fill="#fff"/> <path d="m679.9 642c0 3.6 3.1 7.898 14.1 19.199 5.601 5.801 9.8 10.6 9.4 10.6-1.7 0-14.8-10.5-19.8-16-5.5-5.9-7.4-10.199-6.2-14 0.899-2.699 2.5-2.5 2.5 0.201z" fill="#fff"/> <path d="m703.79 653.5c2.7 3.199 8.101 8.299 12 11.299 7.2 5.6 8 7.9 1.4 4-5.9-3.5-11.9-8.799-16.2-14.4-2.3-2.898-4.1-5.6-4.1-5.898 1e-3 -1.901 2.4-0.102 6.9 4.999z" fill="#fff"/> <path d="m691.29 667.8c3.101 2.5 5.601 4.801 5.601 5.301 0 1.4-9.4-4.201-15.9-9.4-5.8-4.699-8.1-8.5-6.6-10.801 0.3-0.6 2.899 1.4 5.899 4.701 3 3.1 7.9 7.699 11 10.199z" fill="#fff"/> <path d="m732.4 656.7c3.1 2.699 8.899 6.9 12.8 9.199 8.4 4.9 8.2 4.701 7.5 5.5-1.3 1.301-17.3-8-21.9-12.799-4.3-4.301-5.899-6.801-4.5-6.801 0.3 0 2.999 2.201 6.1 4.901z" fill="#fff"/> <path d="m732.9 667.7c9.8 6.5 10.8 9.301 1.3 3.6-6.7-4-13.3-9.4-11.6-9.5 0.699-1e-3 5.3 2.7 10.3 5.9z" fill="#fff"/> <path d="m596.19 669.2c12.6 7.1 31.5 9.9 37 5.6 3.2-2.5 4.4-2.5 5.2 0 1.1 3.4-5.2 11-11.601 14.201-7.1 3.5-13 5-36.8 9.199-10.8 1.9-21.3 4.199-23.399 5.1-2 0.801-3.7 1.201-3.7 0.701 0-1.9 11.899-7.701 24.7-12.102 14.899-5.199 20.3-7.6 20.3-9.1 0-3-16.9 1.4-43.2 11.4-3.7 1.4-6.9 2.199-7.2 1.699-1-1.5 2.601-5.199 7.7-7.799 11.7-5.9 19.3-12.301 14.4-12.301-2.101 0-16.9 6.801-22.7 10.4-3.3 2-8.5 4.1-12.601 5-3.8 0.801-8 1.801-9.399 2.199-2.2 0.602-2.101 0.301 1-2.1 5.3-4 15-8.6 30-14.1 7.399-2.699 15.7-6.301 18.5-8 2.7-1.801 5.2-3.199 5.3-3.301 0.201-0.097 3.1 1.403 6.5 3.304z" fill="#fff"/> <path d="m530.19 56.801c-2.8 1.2-4.6 4.6-3.9 7.5 1.4 5.5 12.7 8.6 18.2 5.1 2.8-1.9 5.8-7.2 4.8-8.7-2.199-3.6-13.899-6-19.1-3.9z"/> <path d="m538.29 59.701c0.7 1.1-2.199 2.3-3.5 1.5-0.5-0.3-0.8 0-0.699 0.7 0.199 0.7-0.5 1.5-1.4 1.7-1.1 0.2-1.8-0.2-1.8-1.2 0-2.7 6.099-4.9 7.399-2.7z" fill="#fff"/> <path d="m261.9 290.3c0 1.9 2.399 3 4.7 2.1 1.899-0.8 0.899-2.1-2.4-3.1-1.701-0.5-2.3-0.2-2.3 1z"/> <path d="m754.9 514.9c-15 1.9-14.3 3.602 1.8 4.102l11.2 0.299v-2.699c0-3.202-0.8-3.302-13-1.702z"/> <path d="m246.9 601.8c-0.8 0.5-1.2 1.201-0.9 1.5 1.101 1 22.9 6.201 37.4 8.801 7.8 1.4 17.899 3.699 22.5 5 4.7 1.4 13.7 3 20 3.6 6.3 0.699 12.899 1.4 14.5 1.699 14.1 2.701-26.101-10.398-51.3-16.699-4-0.9-14.4-2.5-23.101-3.301-18.5-1.899-17.2-1.799-19.099-0.6z"/> <path d="m729.29 606.7c0.7 1 5.101 1.699 19.601 3 5.8 0.6 12.5 1.301 14.8 1.699 4 0.602 4.2 0.5 4.2-1.799 0-2.301-0.4-2.6-6.101-3.201-9.199-0.899-33.1-0.699-32.5 0.301z"/> <path d="m366.9 616.7c0 0.5 1.899 1.199 4.3 1.6 2.3 0.301 10 1.701 17.2 3.1 7.1 1.301 17.899 2.9 24 3.5 6 0.5 15.5 1.701 21 2.5 5.5 0.801 11.399 1.4 13 1.301h3l-3.5-1.301c-2-0.799-6-2.6-9-4.199-5.2-2.6-6.5-2.801-23-3.5-9.601-0.4-21.3-1.4-26-2.301-9.3-1.8-21-2.101-21-0.7z"/> <path d="m745.9 625.2c0 1 11.3 2.699 14 2.1 5.7-1.299 3-2.5-5.5-2.5-4.701-1e-3 -8.5 0.2-8.5 0.4z"/> <path d="m265.9 645.1c-0.3 0.299-3.7 0.699-7.5 0.799-8.101 0.301-13.2 1.602-11.7 3.102 0.6 0.6 9.7 1.398 20.4 1.799 11.8 0.5 23.8 1.701 30.8 3 6.3 1.1 18.5 2.5 27.1 2.9 12.5 0.699 17 1.4 22.9 3.5l7.3 2.5-2.7-2.801c-1.5-1.6-6.2-4.1-10.899-5.898-7.301-2.701-9.801-3.102-21.7-3.602-8.101-0.299-17.5-1.299-23.5-2.6-9.602-2.099-29.501-3.799-30.501-2.699z"/> <path d="m237.69 665.9c-1 0.5-1.8 1.701-1.8 2.4 0 1.9 10.6 2.1 14.7 0.301 2.699-1.201 2.6-1.301-2.7-1.6-3-0.201-5.9-0.701-6.4-1.301-1.2-1.099-1.599-1.099-3.8 0.2z"/> <path d="m78.395 673.4c-28.9 2.102-28.101 3.201 2.5 3.301 35.6 0.199 42.7 0.9 53.2 5.699 4.6 2 14.699 5.9 22.6 8.5 7.8 2.602 16.8 6.201 19.8 7.9 3.101 1.701 5.8 2.9 6.101 2.701 1.199-1.201-7.4-8.801-13.5-12-9.301-4.9-28-12.4-38-15.301-9.902-2.8-21.402-2.999-52.701-0.8z"/> <path d="m261.4 673.8c-3.3 0.4-10.8 0.801-16.601 0.9-10.899 0.1-26.5 2.301-30.1 4.199-4.1 2.201-0.3 3 9 1.9 5-0.6 21.9-1.199 37.4-1.299 24.6-0.201 30.399 0.1 43.899 2.1 8.601 1.199 19.5 3.299 24.101 4.6 7.399 2.199 44.8 10.6 46.899 10.6 0.5 0 0.601-0.6 0.3-1.4-0.8-2-8.399-5.1-21.5-8.6-6.3-1.699-15-4.199-19.3-5.6-14.399-4.5-34.5-7.6-52.1-7.9-8.798-0.199-18.699 0-21.998 0.5z"/> </svg>