<?xml version="1.0" encoding="UTF-8" standalone="no"?>
<svg
   viewBox="0 0 278.16394 169.60257"
   version="1.1"
   id="svg51"
   sodipodi:docname="stegosaurus.svg"
   width="278.16394"
   height="169.60257"
   xml:space="preserve"
   inkscape:version="1.4.2 (f4327f4, 2025-05-13)"
   xmlns:inkscape="http://www.inkscape.org/namespaces/inkscape"
   xmlns:sodipodi="http://sodipodi.sourceforge.net/DTD/sodipodi-0.dtd"
   xmlns="http://www.w3.org/2000/svg"
   xmlns:svg="http://www.w3.org/2000/svg"><defs
     id="defs51" /><sodipodi:namedview
     id="namedview51"
     pagecolor="#ffffff"
     bordercolor="#000000"
     borderopacity="0.25"
     inkscape:showpageshadow="2"
     inkscape:pageopacity="0.0"
     inkscape:pagecheckerboard="0"
     inkscape:deskcolor="#d1d1d1"
     showguides="false"
     inkscape:zoom="1.1888233"
     inkscape:cx="297.35286"
     inkscape:cy="184.63636"
     inkscape:window-width="1440"
     inkscape:window-height="1009"
     inkscape:window-x="-8"
     inkscape:window-y="-8"
     inkscape:window-maximized="1"
     inkscape:current-layer="svg51" /><g
     fill-rule="evenodd"
     id="g51"
     transform="translate(0.00201,9.0311955e-4)"><path
       d="m 147.63,6.431 c -2.394,-1.793 0.332,-3.004 -3.186,-3.196 -2.201,-0.12 -3.734,2.131 -5.841,2.131 -4.358,0 -6.942,-3.205 -10.839,-3.986 -1.691,-0.339 -4.409,0.527 -5.624,1.855 -0.625,0.684 -0.95,2.385 -1.287,3.23 -0.783,1.964 -1.092,1.196 -1.898,2.097 -0.137,0.152 0.138,2.114 0,2.131 -1.051,0.133 -2.124,-0.46 -2.124,-1.598 0,-0.958 -3.273,-0.533 -4.249,-0.533 0.889,0.675 0.463,4.508 -1.063,5.329 -1.445,0.777 -7.211,-2.132 -8.994,-2.132 -3.341,0 -5.237,0.208 -6.405,3.73 -0.483,1.459 -0.231,7.99 -2.125,7.99 -2.89,0 -2.655,3.953 -2.655,5.879 0,3.769 -4.271,0.084 -6.372,1.579 -2.725,1.939 0.506,6.583 -1.061,8.524 -0.53,0.658 -2.813,-0.374 -3.718,0.533 -1.264,1.266 -0.568,3.493 -1.595,4.794 -0.575,0.729 -2.828,1.419 -3.696,1.854 -1.141,0.572 -1.161,2.34 -1.613,3.474 -0.38601,0.969 0.57999,1.84 -0.55101,2.407 -2.251,1.129 -0.889,1.55 -1.848,3.473 -1.236,2.477 -7.161,1.532 -7.161,4.104 0,1.645 -0.003,3.289 0,4.934 0.002,0.98901 -1.416,0.352 -0.785,1.617 0.356,0.717 0.785,1.284 0.785,2.078 0,2.307 1.224,7.421 -2.183,5.144 -2.734,-1.829 -4.191,-2.217 -4.191,1.282 v 6.295 c 0,4.158 2.646,3.958 6.374,4.893 -12.473,5.008 -28.596,6.394 -41.934,6.394 -1.909,0 -5.968,2.184 -7.986,3.195 -3.405,1.709 -6.778,2.54 -9.499,5.269 -2.985,2.991 -4.308,5.038 -4.308,9.203 0,1.418 2.12,3.28 2.95,4.392 1.255,1.679 2.303,0.513 3.422,1.382 0.996,0.774 1.589,3.194 2.675,3.194 h 16.05 c 7.59,0 15.305,-1.518 22.784,-0.444 7.529,1.08 15.016,2.408 22.473,3.905 5.524,1.108 2.973,1.979 4.525,6.661 0.735,2.218 3.358,6.925 -0.021,6.925 -5.414,0 -10.069,2.245 -10.069,8.025 0,2.493 9.515,1.564 11.118,1.564 5.253,0 9.354,0.774 13.31,-3.196 3.185,-3.196 4.248,-3.517 4.248,-8.523 1.827,1.608 2.627,3.134 3.699,5.289 0.801,1.607 -0.783,3.804 -1.572,4.3 -1.275,0.80199 -3.341,0.812 -4.982,1.909 -1.393,0.93199 -5.349,0.479 -7.266,1.121 -2.025,0.679 -11.246,7.626 -5.299,7.626 1.077,0 4.035,1.405 5.43,1.756 2.389,0.60001 4.845,0.375 7.302,0.375 4.421,0 7.104,-0.952 11.151,-3.39 2.611,-1.573 11.104,-5.858 11.829,-8.774 0.607,-2.441 2.013,-3.693 2.013,-5.396 0,-3.262 2.188,-2.686 4.927,-2.686 2.916,0 5.645,0.52499 8.526,1.008 2.117,0.354 4.525,-1.005 6.727,-1.008 -2.426,2.154 0.051,5.328 -4.798,5.328 -3.08,0 -4.762,4.256 -4.762,6.926 0,6.652 13.053,6.926 17.546,6.926 3.642,0 6.973,0.298 10.13,-1.815 3.767,-2.521 2.064,-4.591 2.064,-8.34 0,-4.34 -2.308,-6.158 -1.174,-10.711 1.043,-4.188 4.418,-2.354 6.483,-4.705 1.384,2.774 2.593,5.905 4.249,8.524 1.106,1.751 2.125,1.515 2.125,3.709 0,1.352 -0.326,3.095 0.27499,4.301 0.94101,1.891 4.229,4.623 3.972,5.84 -0.767,3.627 -7.027,3.72 -9.027,6.395 -1.722,2.302 -1.911,5.17 1.082,6.669 1.567,0.785 5.883,3.985 6.353,3.985 2.206,0 4.733,0.33899 6.904,0 1.169,-0.183 1.842,-1.066 3.504,-1.066 2.293,0 4.854,0.34201 7.117,0 6.645,-1.004 12.41,-7.424 8.183,-13.791 -2.685,-4.042 -6.423,-13.541 -2.342,-17.641 1.077,-1.081 0.7,-1.863 1.594,-2.663 1.035,-0.926 2.994,-1.648 4.188,-2.446 3.316,-2.218 3.273,-1.538 6.253,-0.418 7.575,2.85 15.122,5.729 22.797,8.298 10.611,3.55 22.937,4.155 34.03,4.155 6.125,0 10.332,-3.296 13.411,-7.931 1.373,-2.066 2.394,-1.346 1.953,-3.991 -0.543,-3.268 -1.184,-6.293 -2.09,-9.474 -0.84601,-2.97 -1.832,-4.297 -3.789,-6.752 -1.979,-2.48 0.68799,-3.546 1.676,-6.514 1.416,-4.259 -0.358,-9.812 -2.707,-13.345 -3.93,-5.913 -3.068,5.843 -3.5,8.584 -1.297,8.239 -6.02,-0.037 -10.62,-1.066 -0.18399,1.846 -0.084,3.791 1.062,5.328 -0.36801,-2.201 -1.793,-1.908 -3.245,-2.88 -2.334,-1.562 -2.066,-2.449 -3.285,-4.895 -3.158,-6.337 -4.092,-2.643 -4.092,2.446 -0.465,-1.929 -1.314,-0.258 -2.654,-1.599 -0.89299,-0.893 0.84201,-3.201 0.53101,-4.794 -0.29201,-1.501 -4.399,-6.059 -1.063,-6.393 -1.633,-1.225 -1.193,-3.33 -2.854,-4.994 -1.033,-1.035 -5.081,-0.899 -2.987,-2.996 2.553,-2.559 -1.404,-2.235 -1.594,-3.73 -0.326,-2.581 2.206,-3.115 -0.53,-5.861 -2.617,-2.625 -0.53101,-6.044 -0.53101,-9.569 0,-5.878 -4.923,-5.978 -9.559,-4.815 0,-1.167 0.48,-6.393 -0.53101,-6.393 -2.714,0 -1.429,-4.938 -2.655,-7.459 -1.112,-2.286 -3.17,-4.261 -5.861,-4.261 -3.375,0 -1.371,-5.328 -4.248,-5.328 -4.368,0 -1.408,-1.803 -2.911,-4.815 -1.382,-2.77 -2.591,-3.632 -6.098,-3.709 -1.117,-0.024 -2.344,1.066 -3.697,1.066 -0.985,0 -0.401,-1.832 -0.825,-2.684 -1.823,-3.658 -4.542,-0.375 -7.16,0.553 0,-4.895 -0.293,-9.881 -3.916,-13.519 -2.101,-2.109 -4.719,-0.997 -7.203,-0.167 -2.969,0.993 -2.806,3.009 -5.874,4.096 -1.2,-2.409 -2.126,-4.633 -4.249,-6.394 -0.87001,0.976 -1.94,1.689 -3.186,2.131 -0.49901,-1.188 0.039,-1.065 -1.594,-1.065 -1.354,0 0.047,-1.448 -0.53099,-2.131 -1.653,-1.953 -3.656,-3.072 -5.035,-5.84 -3.629,-7.278 -8.641,2.184 -13.023,3.712"
       id="path1" /><path
       d="m 150.82,7.497 c -0.482,5.047 5.171,10.375 7.435,14.917 1.848,-1.695 3.088,-3.583 4.469,-5.66 2.512,-3.777 1.217,-3.887 -1.283,-7.126 -1.126,-1.459 -1.807,-5.817 -3.186,-6.393 -1.934,-0.807 -6.372,2.972 -7.435,4.262"
       fill="#cccccc"
       id="path2" /><path
       d="m 125.33,4.3 c -1.313,1.975 -4.292,5.237 -2.911,8.011 0.837,1.684 2.384,2.698 3.972,3.71 0.997,0.636 1.649,1.432 3.187,2.131 0.729,-1.46 6.618,-8.37 6.373,-9.59 C 135.32301,5.437 127.506,4.3 125.33,4.3"
       fill="#bfbfbf"
       id="path3" /><g
       fill="#cccccc"
       id="g6"><path
         d="m 133.82,23.479 c -0.39,1.739 3.914,8.787 5.547,10.971 2.457,3.285 2.684,3.946 6.647,3.946 2.785,0 3.957,-0.722 5.432,-3.187 3.047,-5.096 5.457,-10.949 0.76199,-15.659 -0.911,-0.914 -0.754,-2.45 -1.394,-3.529 -0.561,-0.945 -1.781,-1.443 -2.281,-2.447 -1.503,-3.014 -2.768,-4.749 -5.153,-7.144 -2.511,2.684 -5.71,4.33 -7.749,7.399 -2.014,3.031 -1.811,6.167 -1.811,9.65"
         id="path4" /><path
         d="m 122.14,40.527 c 5.871,1.359 7.673,-11.826 6.746,-15.548 -0.78801,-3.167 -2.659,-5.32 -4.622,-6.827 -2.177,-1.671 -5.831,-4.395 -8.497,-5.328 -2.293,5.754 -4.427,9.588 -3.396,15.781 0.784,4.721 6.533,8.672 9.769,11.922"
         id="path5" /><path
         d="m 160.38,27.741 c -0.461,4.251 2.902,7.381 3.875,11.286 0.761,3.056 1.91,1.737 4.11,2.842 2.652,1.332 4.483,-1.545 6.656,-3.29 2.987,-2.397 6.348,-8.333 3.649,-11.943 -3.118,-4.172 -6.058,-8.273 -8.732,-12.746 -4.087,4.101 -6.979,8.675 -9.558,13.851"
         id="path6" /></g><g
       fill="#bfbfbf"
       id="g8"><path
         d="m 178.43,18.152 c -2.124,1.615 4.881,7.412 4.249,11.72 2.446,-0.711 4.619,-1.784 6.884,-2.921 0.226,-0.113 -0.25201,-5.683 -0.51201,-6.669 -1.596,-6.057 -6.843,-6.722 -10.621,-2.13"
         id="path7" /><path
         d="m 97.715,23.479 c 1.86,0.659 7.727,3.384 9.56,2.131 1.547,-1.057 2.753,-7.855 3.186,-9.589 -3.5,0.204 -6.642,-1.066 -10.124,-1.066 -1.812,0 -1.557,7.083 -2.622,8.524"
         id="path8" /></g><g
       fill="#cccccc"
       id="g10"><path
         d="m 94.527,29.872 c -0.694,1.115 -1.164,2.312 0,3.196 -3.626,0.261 2.124,9.444 2.124,10.122 0,1.93 11.146,7.487 11.958,3.414 0.688,-3.444 0.788,-6.46 0.788,-9.985 0,-1.416 -0.512,-2.919 -0.788,-4.301 -0.296,-1.484 -1.335,-1.122 -1.335,-1.934 0,-2.375 -4.65,-2.085 -7.043,-2.564 -2.898,-0.582 -4.614,-0.356 -5.704,2.052"
         id="path9" /><path
         d="m 182.68,36.265 c 0.354,0.355 0.707,0.71 1.062,1.065 h -1.062 c 1.165,3.508 2.34,6.914 2.124,10.655 3.183,-1.065 8.001,-1.636 10.4,-4.042 4.116,-4.127 3.188,-5.39 2.538,-11.256 -1.15,-10.378 -11.279,-0.218 -15.062,3.578"
         id="path10" /></g><g
       fill="#bfbfbf"
       id="g12"><path
         d="m 200.74,32.003 c 0.90601,2.729 1.062,4.594 1.062,7.458 2.296,-1.724 5.311,-1.09 5.311,-4.814 -0.001,-5.325 -2.814,-4.431 -6.373,-2.644"
         id="path11" /><path
         d="m 128.52,38.396 c 1.318,0 8.496,0.481 8.496,-0.552 0,-2.886 -2.67,-5.596 -4.248,-7.971 -1.05,3.16 -2.943,5.504 -4.248,8.523"
         id="path12" /></g><path
       d="m 151.88,38.396 c 2.527,1.881 6.706,-0.283 8.497,2.131 0.424,-3.661 -2.062,-6.205 -3.187,-9.59 -1.225,2.829 -3.045,5.379 -5.31,7.459"
       fill="#cccccc"
       id="path13" /><path
       d="m 86.031,34.134 c 1.326,1.801 1.061,3.742 1.061,5.84 0,1.036 3.222,0.553 4.249,0.553 -1.581,-2.143 -0.012,-4.494 -1.063,-6.393 -0.768,-1.389 -2.736,-1.721 -4.247,0"
       fill="#bfbfbf"
       id="path14" /><g
       fill="#cccccc"
       id="g16"><path
         d="m 112.58,42.658 c -1.149,4.397 4.679,0.85 6.373,0 -1.038,-1.282 -0.951,-3.042 -2.124,-4.262 -0.936,-0.973 -2.91,-0.168 -4.249,-2.131 v 6.393"
         id="path15" /><path
         d="m 199.68,54.378 c 2.526,1.196 11.793,0.725 12.909,-2.63 1.64,-4.928 1.024,-8.827 -1.228,-13.352 -3.565,2.05 -6.036,2.862 -9.027,5.86 -3.223,3.229 -2.654,5.687 -2.654,10.122"
         id="path16" /></g><path
       d="m 178.43,39.461 c -1.249,1.255 -2.42,3.211 -4.248,3.197 0.47501,2.204 6.371,4.432 6.371,2.663 0,-2.775 0.119,-4.913 -2.123,-6.925 v 1.065"
       fill="#bfbfbf"
       id="path17" /><g
       fill="#cccccc"
       id="g19"><path
         d="m 86.031,70.36 c -2.81,0.766 -4.333,4.346 -6.314,6.333 -2.716,2.724 -3.938,5.203 -7.453,6.966 -5.301,2.658 -9.232,8.012 -15.538,8.012 -3.236,0 -6.292,1.064 -9.559,1.064 -2.116,0 -6.089,0.824 -8.399,1.598 -6.35,2.123 -13.537,0.263 -20.214,2.497 -4.232,1.417 -15.042,4.779 -16.428,9.758 -0.113,0.40601 1.061,2.864 1.061,3.708 0,1.726 1.655,1.617 2.897,1.617 3.981,0 7.078,-0.104 10.91,-1.064 3.464,-0.869 6.087,-1.065 9.678,-1.065 1.423,0 3.604,-0.52499 4.661,0.532 1.335,1.335 0.265,1.598 -1.03,1.598 -5.775,0 -14.634,1.359 -19.681,4.265 12.963,0 26.429,-1.079 39.297,0.532 3.836,0.479 7.49,0.531 11.365,0.531 3.418,0 6.425,2.131 9.347,2.131 1.903,0 2.242,0.571 3.718,1.064 0.549,0.18401 2.657,0.776 3.187,1.066 0.71999,0.395 2.08,2.999 3.188,2.132 1.118,-0.875 -1.221,-4.493 -1.064,-5.329 0.76,-4.06 3.191,-1.053 3.859,0.959 1.227,3.692 2.671,7.009 5.7,9.697 3.731,3.312 15.729,7.561 10.62,14.916 -1.325,1.907 -6.145,4.789 -8.497,5.328 -2.388,0.54701 -6.733,-1.217 -7.433,1.064 -1.938,6.325 14.622,1.59 16.982,0.644 4.582,-1.839 6.851,-4.112 9.804,-8.063 2.399,-3.208 1.89,-5.836 1.89,-9.943 0,-8.116 -5.941,-14.729 -10.62,-20.995 1.581,2.382 5.711,6.886 3.184,9.59 -1.31,-2.628 -2.881,-6.703 -5.31,-8.523 -1.229,-0.921 -8.497,-2.085 -8.497,-3.729 0,-1.452 2.124,0.395 2.124,-1.085 0,-1.99 1.097,-2.064 3.187,-1.578 2.805,0.653 6.442,3.397 8.496,5.325 4.161,3.905 9.56,10.429 9.56,16.417 0,4.592 1.103,4.747 5.226,5.338 4.289,0.614 7.808,0.23399 12.147,-0.25 3.245,-0.36099 6.445,-1.259 9.711,-1.259 3.237,0 5.999,-1.825 9.028,-3.197 2.2,-0.99701 8.07,0.116 9.559,-1.066 1.172,-0.93101 0,-6.893 0,-9.057 0,-7.25 -3.103,-13.384 -2.124,-20.776 0.44701,-3.383 1.981,-6.74 2.655,-10.122 0.46701,-2.341 3.443,-6.664 5.842,-7.991 0.687,-0.38 5.708,-1.338 6.371,-1.065 0.15501,0.063 -3.469,2.535 -4.247,3.197 -5.021,4.268 -6.529,7.325 -7.646,14.052 -0.87801,5.285 -0.515,11.086 2.335,15.78 1.362,2.242 2.802,4.557 3.974,6.906 0.79401,1.593 -4.139,2.894 -3.974,-0.514 0,3.825 0.79701,6.262 2.241,9.885 1.382,3.465 5.193,9.379 5.193,12.992 0,2.204 -0.53101,4.292 1.062,5.893 1.722,1.728 3.456,3.452 2.656,5.859 -1.721,5.182 -5.786,4.027 -9.028,7.991 0.94299,-0.631 9.56,-5.807 9.56,-2.663 0,3.611 -6.29,2.543 -5.312,6.927 3.044,-1.331 4.578,-3.198 7.999,-3.198 2.713,0 -2.246,3.968 -2.688,4.262 3.104,-1.569 4.765,0 7.867,0 3.071,0 4.534,-1.063 6.451,-1.063 1.564,0 4.799,-3.035 4.799,-3.731 0,-3.386 -0.603,-4.938 -2.124,-7.99 -2.587,-5.19 -4.309,-9.439 -2.007,-15.211 1.482,-3.718 3.158,-5.063 5.193,-8.229 0.78,-1.214 1.169,-2.932 1.702,-4.271 0.61,-1.53 2.152,-1.33 2.822,-2.674 1.148,-2.307 1.848,-3.811 1.848,-6.372 0,-0.624 1.505,-0.92 2.124,-0.532 1.954,1.225 0.3,2.939 0,4.259 -0.278,1.229 -2.372,5.328 -1.593,5.328 0.615,0 4.214,-3.356 4.779,-4.262 1.265,-2.025 1.646,-6.568 2.36,-8.958 0.991,-3.313 0.24899,-5.079 -0.607,-8.517 -1.79,-7.183 -4.598,-10.701 -9.187,-16.621 5.126,-4.842 12.256,12.961 13.118,16.417 2.325,9.325 -2.072,16.101 -7.81,23.006 1.583,0.56 2.855,1.584 4.249,2.132 1.515,0.59601 3.458,0.66901 4.8,1.342 1.285,0.64499 3.02,2.92 4.248,2.92 1.498,0 4.279,0.584 5.291,1.598 2.633,2.637 8.884,2.948 12.41,3.454 4.167,0.59799 8.199,1.997 12.37,2.519 7.201,0.901 20.253,2.162 25.139,-4.373 5.263,-7.041 -2.918,-18.377 -7.966,-23.441 4.537,4.553 5.477,7.124 2.399,13.299 -3.628,7.279 -14.175,3.943 -20.063,2.763 -2.403,-0.48201 -6.155,-4.035 -8.575,-5.248 -1.125,-0.564 -4.913,-7.395 -5.625,-8.682 -2.998,-5.421 -5.579,-10.574 -8.261,-16.852 -1.551,-3.629 -3.162,-6.931 -5.113,-10.357 -0.80501,-1.412 -1.422,-2.551 -2.558,-3.69 -1.46,-1.465 -0.21901,-3.417 -1.394,-4.596 -5.271,-5.288 -8.609,-11.831 -13.928,-17.168 -2.337,-2.345 -5.205,-3.805 -8.035,-5.508 -2.664,-1.603 -5.234,-4.693 -7.976,-4.693 -1.846,0 -4.612,-2.648 -6.551,-3.513 -3.411,-1.521 -6.831,-3.542 -10.509,-4.279 -7.644,-1.533 -15.713,-3.928 -23.518,-3.928 -8.508,0 -16.273,2.138 -24.504,4.202 -7.668,1.922 -13.274,6.647 -19.686,10.936 -6.308,4.216 -10.28,9.356 -15.597,14.69"
         id="path18" /><path
         d="m 81.781,50.116 c 1.659,0.053 1.353,1.155 1.753,2.762 0.52,2.084 1.579,1.983 3.594,2.792 2.699,1.083 7.399,2.228 7.399,-1.806 0,-1.843 0.187,-7.384 -1.377,-8.168 -3.546,-1.779 -6.361,-2.379 -10.305,-3.038 9.99e-4,2.513 0.527,5.311 -1.064,7.458"
         id="path19" /></g><g
       fill="#bfbfbf"
       id="g23"><path
         d="m 216.67,45.854 c 0,2.244 0.355,4.472 -1.063,6.394 3.271,0 5.311,1.062 5.311,-2.63 0,-2.429 -1.355,-7.456 -4.248,-3.764"
         id="path20" /><path
         d="m 187.99,50.116 c 2.447,-0.113 1.416,2.131 3.717,2.131 1.6,0 3.13,1.892 3.718,3.196 1.002,-3.016 1.062,-5.36 1.062,-8.524 -2.648,1.641 -5.849,1.556 -8.497,3.197"
         id="path21" /><path
         d="m 97.715,47.985 v 7.458 c 1.414,-1.72 3.311,-2.252 4.779,-3.729 1.341,-1.348 -3.642,-3.158 -4.779,-3.729"
         id="path22" /><path
         d="m 76.472,49.05 c 0,2.19 -0.933,4.262 1.594,4.262 1.005,0 0.53,-4.19 0.53,-5.327 -0.672,0.337 -1.551,0.587 -2.124,1.065"
         id="path23" /></g><g
       fill="#cccccc"
       id="g25"><path
         d="m 213.48,59.705 c 0.151,1.521 -1.441,6.267 -0.565,6.56 4.278,1.431 7.442,0.672 9.903,-3.03 0.83701,-1.261 2.736,-7.792 -0.222,-7.792 -3.2,0 -8.211,0.32 -9.116,4.262"
         id="path24" /><path
         d="m 81.781,68.229 c 1.669,-8.349 -0.846,-9.528 -8.495,-11.72 0,6.417 0.043,12.537 8.495,11.72"
         id="path25" /></g><g
       fill="#bfbfbf"
       id="g29"><path
         d="m 201.8,57.574 c -0.62201,2.813 1.607,2.074 3.186,3.196 1.178,0.837 2.687,5.045 4.249,4.263 0.071,-0.03599 1.483,-6.989 1.063,-7.459 -0.65401,-0.731 -7.389,0 -8.498,0"
         id="path26" /><path
         d="m 84.969,59.705 c 2.04,2.362 -0.325,4.741 0,7.459 3.326,-2.224 5.094,-3.612 6.372,-7.459 h -6.372"
         id="path27" /><path
         d="m 65.85,62.902 c 0.766,0.605 0.895,3.107 1.063,3.196 2.417,1.283 2.124,-1.253 2.124,-2.664 0,-1.957 0.576,-2.664 -1.573,-2.664 -1.559,9.99e-4 -2.069,0.36 -1.614,2.132"
         id="path28" /><path
         d="m 226.23,61.836 c 0,1.022 -0.582,4.262 0.551,4.262 0.845,0 3.435,0.394 3.918,-0.333 2.816,-4.234 -0.21899,-7.093 -4.469,-3.929"
         id="path29" /></g><path
       d="m 220.92,76.753 c -0.524,0.556 0.489,1.444 -1.063,1.065 6.669,2.232 11.684,-2.32 11.684,-9.089 0,-1.27 -5.479,-0.38799 -6.433,0.25 -3.017,2.018 -3.327,4.318 -4.188,7.774"
       fill="#cccccc"
       id="path30" /><g
       fill="#bfbfbf"
       id="g35"><path
         d="m 66.912,69.294 c 0,3.976 0.989,8.523 5.876,8.523 0.684,0 0.879,-4.475 0.498,-5.327 -0.94801,-2.119 -4.217,-3.544 -6.374,-3.196"
         id="path31" /><path
         d="m 213.48,70.36 h -1.063 c 1.439,1.065 2.125,2.018 2.125,3.729 0,0.885 2.218,0.72501 2.125,2.664 2.787,-1.918 2.123,-4.437 2.123,-7.458 -1.549,1.15 -3.453,1.256 -5.31,1.065"
         id="path32" /><path
         d="m 75.409,70.36 c 1.418,1.922 1.063,4.149 1.063,6.393 0.45,-0.451 4.339,-3.673 4.251,-4.262 -0.18,-1.21 -4.407,-1.735 -5.314,-2.131"
         id="path33" /><path
         d="m 231.54,77.818 c 1.321,0.328 2.4,-0.007 3.187,-1.065 -0.59599,-0.54 -0.523,-0.467 -1.063,-1.066 -0.68999,0.694 -1.517,1.364 -2.124,2.131"
         id="path34" /><path
         d="m 60.54,77.818 c 0,4.865 0.55,4.134 5.31,5.329 0.63,-2.827 -2.696,-5.376 -5.31,-5.329"
         id="path35" /></g><path
       d="m 225.17,90.604 c 3.225,1.364 5.674,1.768 8.164,-0.732 0.819,-0.822 2.363,-7.791 0.86301,-7.791 -2.565,0 -5.048,-2.792 -7.124,0.332 -2.007,3.02 -1.903,4.583 -1.903,8.191"
       fill="#cccccc"
       id="path36" /><g
       fill="#bfbfbf"
       id="g39"><path
         d="m 219.86,82.081 c 0.80101,1.202 1.326,1.992 2.124,3.196 0.338,-1.974 0.28299,-3.815 -2.124,-3.196"
         id="path37" /><path
         d="m 235.79,91.671 c 1.195,0.896 4.261,1.86 5.311,0 1.271,-2.253 -2.09,-3.032 -3.188,-4.264 0.018,1.958 -2.14,2.306 -2.123,4.264"
         id="path38" /><path
         d="m 227.29,94.865 c 0.938,0.479 1.51,0.444 1.062,2.132 0.727,-0.557 1.569,-1.403 2.123,-2.132 -1.043,0 -2.148,-0.105 -3.185,0"
         id="path39" /></g><path
       d="m 233.66,106.59 c 2.388,0 7.435,-0.038 7.435,-3.751 0,-2.737 0.998,-6.405 -1.573,-7.695 -3.21,-1.61 -5.123,1.114 -7.143,3.142 -2.364,2.372 0.083,5.899 1.281,8.304"
       fill="#cccccc"
       id="path40" /><path
       d="m 15.932,102.32 c -3.816,0.318 2.844,6.518 5.311,4.265 2.737,-2.501 -2.443,-7.913 -5.311,-4.265"
       id="path41" /><g
       fill="#bfbfbf"
       id="g43"><path
         d="m 267.65,109.78 c 1.229,2.726 1.741,2.398 3.187,0 1.637,-2.717 0.94501,-4.613 0,-7.46 0.22504,2.701 0.043,6.754 -3.187,7.46"
         id="path42" /><path
         d="m 253.84,108.72 c 0.808,1.029 1.881,1.357 3.188,1.065 -3.453,-1.204 -3.961,-4.226 -6.373,-6.394 0.72,2.055 2.463,3.274 3.185,5.329"
         id="path43" /></g><path
       d="m 243.22,104.46 c -2.178,3.277 -4.195,5.828 -8.496,5.327 0.321,1.846 1.448,2.49 3.185,2.13 1.905,-0.396 1.517,-2.117 3.188,-3.195 1.203,-0.776 4.249,1.078 4.249,-1.598 -0.001,-1.566 -0.285,-2.749 -2.126,-2.664"
       fill="#cccccc"
       id="path44" /><path
       d="m 248.53,105.52 c -1.579,1.414 2.006,6.156 3.05,8.249 1.651,3.313 -1.906,6.192 -4.146,7.54 -4.234,2.55 -0.172,3.094 2.927,4.336 3.026,1.214 6.039,1.184 9.224,1.184 3.902,0 4.052,-0.329 5.939,-3.195 1.064,-1.616 3.379,-6.487 -0.255,-7.53 -7.635,-2.191 -11.759,-4.342 -16.739,-10.584"
       fill="#ffffff"
       id="path45" /><path
       d="m 243.22,119.37 v 1.064 c 2.262,-1.678 4.363,-0.105 5.311,-3.195 0.20299,-0.66399 -0.77501,-6.201 -1.063,-6.394 -1.013,-0.679 -6.372,0.869 -6.372,1.565 0,2.882 0.827,4.359 2.124,6.96"
       fill="#cccccc"
       id="path46" /><g
       fill="#007f00"
       id="g48"><path
         d="m 262.34,112.98 v 1.065 -1.065"
         id="path47" /><path
         d="m 133.82,151.34 c 2.571,-0.68401 -0.357,-3.981 0,0"
         id="path48" /></g><g
       fill="#cccccc"
       id="g50"><path
         d="m 76.472,124.7 c 0.354,0.354 0.709,0.71001 1.063,1.064 h -1.063 c 1.596,2.401 1.469,5.738 3.188,7.459 2.482,2.486 -0.82201,5.264 -3.188,6.394 -1.07,0.511 -2.229,0.655 -3.186,1.066 0.006,-0.002 -4.049,1.063 -1.572,1.063 h 8.457 c 2.277,0 4.918,0.47299 6.962,-0.552 2.013,-1.01 3.146,-0.914 3.146,-3.177 0,-0.93199 0.462,-3.729 -0.53,-3.729 0.415,0 -3.88,-4.73 -4.779,-5.327 -2.702,-1.792 -5.319,-3.34 -8.498,-4.261"
         id="path49" /><path
         d="m 139.14,135.35 c 0,4.02 -0.773,5.038 -3.187,7.459 -1.387,1.392 -2.522,0.84399 -2.124,3.196 0.102,0.599 2.856,-0.71201 2.124,2.132 1.601,-0.802 4.063,-3.021 5.312,-1.065 1.593,2.494 -1.915,1.693 -2.125,2.131 -2.226,4.637 2.912,2.13 5.808,2.13 5.21,0 8.654,0.74199 7.581,-5.712 -0.931,-5.599 -0.61299,-9.284 1.479,-14.531 -4.93,1.977 -9.658,3.216 -14.868,4.26"
         id="path50" /></g></g></svg>
