<svg width="241" xmlns="http://www.w3.org/2000/svg" height="129">
<g>
<g id="layer1">
<g id="g2980">
<g style="fill:#fff;stroke:#000">
<path id="rect6969" d="m 164.399,55.863 h 6.20193 c 1.32907,0 2.39902,1.06995 2.39902,2.39905 v 40.202 c 0,1.32898 -1.06995,2.39899 -2.39902,2.39899 h -6.20193 c -1.32907,0 -2.39905,-1.07001 -2.39905,-2.39899 v -40.202 c 0,-1.3291 1.06998,-2.39905 2.39905,-2.39905 z "/>
<path id="rect6969-1" d="m 165.9879,56.863 h 3.0242 c 1.32907,0 2.39902,1.06995 2.39902,2.39905 v 38.202 c 0,1.32898 -1.06995,2.39899 -2.39902,2.39899 h -3.0242 c -1.32904,0 -2.39902,-1.07001 -2.39902,-2.39899 v -38.202 c 0,-1.3291 1.06998,-2.39905 2.39902,-2.39905 z "/>
<path id="rect6969-1-4-0" d="m 166,56.863 c -1.32904,0 -2.40625,1.07721 -2.40625,2.40625 v 38.1874 c 0,1.07989 0.709747,1.97839 1.6875,2.28131 -0.373932,-0.422791 -0.625,-0.9823 -0.625,-1.59381 v -38.1874 c 0,-1.32904 1.07721,-2.40625 2.40625,-2.40625 h 3.03125 c 0.254395,0 0.489075,0.052307 0.71875,0.125 -0.438965,-0.498962 -1.09259,-0.8125 -1.8125,-0.8125 h -3 z "/>
<path id="rect6969-4" d="m 208.9879,55.863 h 6.20193 c 1.32907,0 2.39905,1.06995 2.39905,2.39905 v 40.202 c 0,1.32898 -1.06998,2.39899 -2.39905,2.39899 h -6.20193 c -1.32907,0 -2.39902,-1.07001 -2.39902,-2.39899 v -40.202 c 0,-1.3291 1.06995,-2.39905 2.39902,-2.39905 z "/>
<path id="rect6969-1-9" d="m 210.5768,56.863 h 3.02417 c 1.32907,0 2.39902,1.06995 2.39902,2.39905 v 38.202 c 0,1.32898 -1.06995,2.39899 -2.39902,2.39899 h -3.02417 c -1.32904,0 -2.39902,-1.07001 -2.39902,-2.39899 v -38.202 c 0,-1.3291 1.06998,-2.39905 2.39902,-2.39905 z "/>
<path id="rect6969-1-4-0-7" d="m 210.584,56.863 c -1.32904,0 -2.40625,1.07721 -2.40625,2.40625 v 38.1874 c 0,1.07989 0.709747,1.97839 1.6875,2.28131 -0.373962,-0.422791 -0.625,-0.9823 -0.625,-1.59381 v -38.1874 c 0,-1.32904 1.07721,-2.40625 2.40625,-2.40625 h 3.03125 c 0.254364,0 0.489044,0.052307 0.71875,0.125 -0.438995,-0.498962 -1.09259,-0.8125 -1.8125,-0.8125 h -3 z "/>
<path id="rect6562-63" d="m 146.399,85.863 h 86.202 c 1.32904,0 2.39902,1.07001 2.39902,2.39899 v 5.20203 c 0,1.32898 -1.06998,2.39899 -2.39902,2.39899 h -86.202 c -1.32907,0 -2.39903,-1.07001 -2.39903,-2.39899 v -5.20203 c 0,-1.32898 1.06996,-2.39899 2.39903,-2.39899 z "/>
<path id="path7072" d="m146.42012,86.956726c-0.74884,0 -1.3125,0.549805 -1.3125,1.281311l0,5.218689c0,0.731506 0.580994,1.3125 1.3125,1.3125l86.1875,0c0.731506,0 1.3125,-0.580994 1.3125,-1.3125l0,-5.218689c0,-0.731506 -0.56366,-1.281311 -1.3125,-1.281311l-86.1875,0z"/>
<path id="rect6562-63-2" d="m 146.399,75.863 h 86.202 c 1.32904,0 2.39902,1.07001 2.39902,2.39899 v 5.20203 c 0,1.32898 -1.06998,2.39899 -2.39902,2.39899 h -86.202 c -1.32907,0 -2.39903,-1.07001 -2.39903,-2.39899 v -5.20203 c 0,-1.32898 1.06996,-2.39899 2.39903,-2.39899 z "/>
<path id="path7072-9" d="m 146.3319,76.863 c -0.750092,0 -1.31471,0.562866 -1.31471,1.31177 v 5.3432 c 0,0.748901 0.581985,1.34375 1.31471,1.34375 h 86.3321 c 0.732697,0 1.31467,-0.594849 1.31467,-1.34375 v -5.3432 c 0,-0.748901 -0.564575,-1.31177 -1.31467,-1.31177 h -86.3321 z "/>
<path id="rect6562-63-5" d="m 146.399,65.863 h 86.2233 c 1.32904,0 2.39902,1.06995 2.39902,2.39905 v 5.2019 c 0,1.3291 -1.06998,2.39905 -2.39902,2.39905 h -86.2233 c -1.32907,0 -2.39903,-1.06995 -2.39903,-2.39905 v -5.2019 c 0,-1.3291 1.06996,-2.39905 2.39903,-2.39905 z "/>
<path id="path7072-98" d="m 146.3379,66.863 c -0.750412,0 -1.31526,0.560242 -1.31526,1.30566 v 5.31824 c 0,0.745483 0.582214,1.33752 1.31526,1.33752 h 86.3682 c 0.733032,0 1.31525,-0.592041 1.31525,-1.33752 v -5.31824 c 0,-0.745422 -0.56485,-1.30566 -1.31525,-1.30566 h -86.3682 z "/>
<path id="rect3649-4" d="m 129,103.863 h 105 c 2,0 2,5 0,5 0,0 -105,0 -105,0 v -5 z "/>
<path id="rect4566" d="m8,23.863037l21,0l-1,35l-10,5l-10,-40z"/>
<path id="path4619" d="m 10.25,25.6259 l 8.9375,35.6875 7.0938,-3.5312 .9062,-32.1562 h -16.9375 z "/>
<path id="rect3649" d="m 18,103.863 h 105 v 5 h -105 v -5 z "/>
<path id="rect3536" d="m18,103.862976l10,0l-3,22l-25,0l18,-22z"/>
<path id="rect3536-2-2-1-6-8" d="m27,103.862976l-3,19l-7,2l7,-21l3,0z"/>
<g id="g3532">
<path id="path3167-4-2" d="m 16.4924,79.8631 c 0,5.52286 -3.69194,10 -8.24619,10 -4.55424,0 -8.24619,-4.47714 -8.24619,-10 0,-5.52286 3.69195,-10 8.24619,-10 4.55425,0 8.24619,4.47716 8.24619,10 z "/>
<path id="path3260-7" d="m 8.2462,71.4005 c -3.86897,0 -6.97834,3.77071 -6.97834,8.46251 0,4.6918 3.10937,8.46251 6.97834,8.46251 3.86897,0 6.97834,-3.77071 6.97834,-8.46251 0,-4.6918 -3.10937,-8.46251 -6.97834,-8.46251 z "/>
</g>
<path id="path3260-1-4-6" d="m 2.0945,80.7208 c -0.807396,-4.02148 1.77688,-7.90411 5.79835,-8.71155 0.427879,-0.085876 0.85849,-0.118042 1.27965,-0.129517 -4.30824,1.05859 -7.04096,5.2981 -6.1589,9.69147 0.241188,1.20129 0.739815,2.27319 1.40766,3.20453 -1.14765,-1.02844 -1.99843,-2.41956 -2.32677,-4.05493 z "/>
<path id="rect3112" d="m 53,18.863 c 0,0 46.2794,-14.5515 60,0 5,30 5,40 0,85.0001 -10,0 -50,0 -50,0 l -10,-85.0001 z "/>
<path id="rect4811" d="m 13.3586,30.2699 l 2.9095,-.2771 3.7408,28.6796 -.8313,.762 -5.819,-29.1645 z "/>
<path id="rect3118" d="m 13,63.863 c 1.94545,-2.21265 4.38483,-4.04602 7.177,-5.55829 2.55817,-1.3855 5.41249,-2.50159 8.45436,-3.39294 2.83638,-0.831177 5.83585,-1.46704 8.91037,-1.94391 2.97995,-0.462219 6.03041,-0.775024 9.07126,-0.971619 3.07759,-0.199036 6.14532,-0.278931 9.12013,-0.274048 3.18005,0.005005 6.25391,0.107239 9.12004,0.264221 3.37582,0.184937 6.4635,0.446045 9.09715,0.714905 5.52322,0.563843 9.04968,1.16168 9.04968,1.16168 0,0 0,4.1225 0,9.99994 0,2.98444 0,6.42133 0,10.0007 0,3.29303 0,6.70667 0,9.99963 0,3.57892 0,7.01532 0,9.99933 0,5.87769 0,10.0004 0,10.0004 0,0 -3.6783,0 -9.28485,0 -2.7106,0 -5.87195,0 -9.28624,0 -2.94888,0 -6.08644,0 -9.28529,0 -3.07657,0 -6.20982,0 -9.28641,0 -3.19911,0 -6.33695,0 -9.28606,0 -3.41389,0 -6.57489,0 -9.2853,0 -5.60712,0 -9.28585,0 -9.28585,0 0,0 -2.35124,-2.87854 -4.81443,-7.31104 -1.27847,-2.30054 -2.5871,-5.01971 -3.61278,-7.97229 -0.937309,-2.69812 -1.63834,-5.59125 -1.86411,-8.53784 -0.220642,-2.87958 0.012581,-5.81036 0.922699,-8.66034 0.83268,-2.60748 2.23195,-5.14734 4.36862,-7.51855"/>
<path id="path3382" d="m 90.6505,15.5711 c -2.97029,0.032898 -5.99109,0.24054 -8.95247,0.560303 -3.06387,0.330811 -6.06413,0.781677 -8.87904,1.2832 -3.23331,0.57605 -6.22208,1.21906 -8.78178,1.82379 -4.82507,1.14001 -8.1256,2.14423 -8.66569,2.3089 0,0 0.384796,3.24683 0.903229,7.62128 0.275833,2.32739 0.589493,4.97394 0.903152,7.62048 0.31369,2.64679 0.62738,5.29364 0.903244,7.62128 0.518463,4.37457 0.903275,7.62158 0.903275,7.62158 0.062866,0.600769 -0.485611,1.19141 -1.09297,1.17712 -2.66914,-0.055908 -5.61179,-0.012512 -8.62973,0.136353 -2.85571,0.140869 -5.77881,0.376099 -8.60138,0.710815 -3.01939,0.358093 -5.92374,0.830017 -8.50743,1.422 -2.16479,0.562866 -4.36356,1.31921 -6.46674,2.21478 -2.16853,0.923401 -4.23545,1.99475 -6.05875,3.1546 -2.15235,1.3692 -3.96523,2.86169 -5.20505,4.3797 -1.61606,1.89276 -2.77085,3.59576 -3.56837,5.27948 -0.941002,1.98663 -1.38467,3.94647 -1.50184,6.15979 -0.108536,2.05005 0.091515,4.13886 0.504799,6.19501 0.411064,2.04511 1.03309,4.0581 1.77225,5.96863 0.993233,2.56732 2.16042,4.89911 3.27452,6.86652 2.04556,3.61218 3.91211,5.99609 4.19418,6.35364 0,0 3.69414,-0.023071 8.96095,-0.055054 2.67432,-0.015991 5.75412,-0.036011 8.96165,-0.055054 2.95087,-0.017944 6.00984,-0.036987 8.96069,-0.054932 3.20706,-0.02002 6.28638,-0.039063 8.96036,-0.055054 5.26701,-0.032959 8.96133,-0.054932 8.96133,-0.054932 0,0 4.85768,0 9.71538,0 4.8577,0 9.71539,0 9.71539,0 0,0 4.21887,0 9.39153,0 3.02199,0 6.36951,0 9.3915,0 5.17268,0 9.3916,0 9.3916,0 0.350693,-3.15002 0.675247,-6.12006 0.973633,-8.93103 0.336655,-3.17163 0.639999,-6.14081 0.910049,-8.93799 0.308136,-3.19153 0.572876,-6.159 0.79425,-8.94745 0.25415,-3.20123 0.451111,-6.16657 0.590866,-8.96381 0.158722,-3.17639 0.243668,-6.13617 0.254776,-8.97888 0.0121,-3.08875 -0.062988,-6.03925 -0.22525,-8.97919 -0.162872,-2.95087 -0.413635,-5.89124 -0.752319,-8.95001 -0.313705,-2.83301 -0.702835,-5.7677 -1.16745,-8.90656 -0.41066,-2.77429 -0.88028,-5.70819 -1.40892,-8.87238 -1.61804,-1.63531 -3.7578,-2.86975 -6.26643,-3.7666 -2.15637,-0.770935 -4.58534,-1.29242 -7.18979,-1.60455 -2.33894,-0.280334 -4.81941,-0.391846 -7.37112,-0.363586 0,0 -6.1e-05,0 -6.1e-05,0"/>
<path id="path3419" d="m 86.5,22.5321 c -11.1149,0.498535 -22.4375,4.40625 -22.4375,4.40625 a 1.10937,1.10937 0 0,0 -0.71875,1.1875 l 2.9688,26.9688 a 1.10937,1.10937 0 0,0 0.96875,0 0,0 7 1,16 3.03125,0 4.35915,0.762695 8 1,12 2.125,0 3.88823,0.57373 7 0,8 0.9375,0 1.10937,1.10937 0 0,1 -1.09375,0 0,-4.89716 0 -11,0 -18.4062,0 0.035599,-3.23108 0 -6,0 -8.96875,0 -0.461868,-2.6651 -1 -4,-2 -6.46875,0 -4.13263,-4.13263 -10 -4,-17 -4.6875,0"/>
<path id="path3165" d="m 76.6626,6.9709 c -14.4375,2.90997 -28.2035,10.224 -35.9484,20.845 -1.03571,1.41998 -1.0791,2.93903 -0.96759,4.43201 0.055786,0.745972 0.137192,1.45197 0.618988,2.22198 0.240799,0.38501 0.641098,0.846008 1.265,1.073 0.623795,0.22699 1.37361,0.13501 1.8762,-0.104004 28.5063,-13.553 32.7724,-14.03 73.0653,-13.937 0.559998,0.001038 1.211,-0.203979 1.66098,-0.58197 0.449005,-0.377014 0.684021,-0.845032 0.820007,-1.26502 0.274002,-0.841003 0.218002,-1.60297 0.091003,-2.341 -0.253998,-1.47601 -0.688004,-2.91199 -2.123,-3.95898 -10.687,-7.79303 -25.921,-9.29303 -40.3585,-6.38397 z "/>
<path id="path3167" d="m 113,103.863 c 0,13.8071 -11.1929,25 -25,25 -13.8071,0 -25,-11.1929 -25,-25 0,-13.8071 11.1929,-25 25,-25 13.8071,0 25,11.1929 25,25 z "/>
<path id="path3167-4" d="m 60.5,111.363 c 0,9.66504 -7.83502,17.5 -17.5,17.5 -9.66499,0 -17.5,-7.83496 -17.5,-17.5 0,-9.66504 7.83501,-17.5 17.5,-17.5 9.66498,0 17.5,7.83496 17.5,17.5 z "/>
<path id="path3236" d="m 88,82.5192 c -11.826,0 -21.3438,9.51782 -21.3438,21.3438 0,11.826 9.51778,21.3438 21.3438,21.3438 11.826,0 21.3438,-9.5177 21.3438,-21.3438 0,-11.8259 -9.51778,-21.3438 -21.3438,-21.3438 z "/>
<path id="path3260" d="m 43,96.5536 c -8.21069,0 -14.8094,6.59869 -14.8094,14.8094 0,8.21069 6.59869,14.8094 14.8094,14.8094 8.21069,0 14.8094,-6.59875 14.8094,-14.8094 0,-8.21069 -6.59868,-14.8094 -14.8094,-14.8094 z "/>
<path id="path3423" d="m 86.625,24.1571 c -10.2988,0.461975 -20.7048,3.92554 -21.6562,4.25 l 2.9062,26.25 c 0.317307,0.061096 7.72818,1.47766 16.25,2.96875 4.35103,0.761292 8.88518,1.5235 12.75,2.09375 3.61891,0.533997 6.54674,0.862061 8.1875,0.90625 0.037704,-5.00476 0.682022,-11.7353 0.75,-17.9062 0.034988,-3.17664 -0.096909,-6.18414 -0.53125,-8.6875 -0.434341,-2.50336 -1.17482,-4.4873 -2.3125,-5.625 -3.59297,-3.59296 -9.86989,-4.5404 -16.3438,-4.25 z "/>
<path id="path3236-8" d="m 88,86.363 c -9.75453,0 -17.5,7.74542 -17.5,17.5001 0,9.7544 7.74547,17.5 17.5,17.5 9.75453,0 17.5,-7.7456 17.5,-17.5 0,-9.75464 -7.74547,-17.5001 -17.5,-17.5001 z "/>
<path id="path3260-1-3-8-1" d="m 89.074,88.6193 c 7.69571,0 13.8834,6.18768 13.8834,13.8835 0,0.818726 -0.099884,1.6228 -0.234314,2.40161 -0.356201,-8.31598 -7.1454,-14.9084 -15.5529,-14.9084 -2.2989,0 -4.45474,0.521301 -6.41449,1.40588 2.31551,-1.73126 5.18875,-2.78259 8.31833,-2.78259 z "/>
<path id="path3260-2" d="m 43,105.063 c -3.61317,0 -6.3,2.68677 -6.3,6.30005 0,3.61316 2.68683,6.29993 6.3,6.29993 3.61316,0 6.3,-2.68677 6.3,-6.29993 0,-3.61328 -2.68684,-6.30005 -6.3,-6.30005 z "/>
<path id="path3260-1-4-2" d="m 43.5563,120.2701 c 4.10173,0 7.3997,-3.29797 7.3997,-7.39966 0,-0.436401 -0.053253,-0.86499 -0.124893,-1.28015 -0.18985,4.43225 -3.80841,7.94617 -8.28954,7.94617 -1.2253,0 -2.37433,-0.277954 -3.41885,-0.749512 1.23415,0.922852 2.76555,1.48315 4.43358,1.48315 z "/>
<path id="rect3354" d="m 45.0834,112.2938 l 38.2784,-20.3918 1.4931,2.3447 -38.2784,20.392 -1.4931,-2.3448 z "/>
<path id="path3260-1-3-8-3-9" d="m 88.5663,94.2653 c 5.11487,0 9.22746,4.11261 9.22746,9.22754 0,0.544189 -0.066406,1.07861 -0.155731,1.59631 -0.236755,-5.52716 -4.74912,-9.90887 -10.3371,-9.90887 -1.52795,0 -2.9608,0.346497 -4.26332,0.934448 1.53897,-1.15076 3.44864,-1.84943 5.52867,-1.84943 z "/>
<path id="path3330" d="m 90.9064,89.8175 c 1.3721,2.65009 -1.1512,6.68079 -5.63593,9.00269 -4.48476,2.32208 -9.23265,2.05621 -10.6048,-0.593506 -1.3721,-2.65009 1.15118,-6.68079 5.63593,-9.00269 4.48474,-2.32208 9.23265,-2.05621 10.6048,0.593506 z "/>
<path id="path3330-4" d="m 47.0387,112.7916 c 0.572388,1.0575 -0.414505,2.70007 -2.20421,3.66882 -1.78976,0.968628 -3.70464,0.896606 -4.27702,-0.161011 -0.572388,-1.0575 0.414536,-2.70019 2.20422,-3.66882 1.78975,-0.968628 3.70462,-0.896484 4.27701,0.161011 z "/>
<path id="rect3115" d="m 42.1328,28.8567 c 14.7625,-20.2446 53.5886,-28.8567 73.8333,-14.0942 1.34665,0.981995 2.27542,4.96668 0.608765,4.96283 -40.3112,-0.092712 -45.274,0.515991 -73.8333,14.0942 -1.50522,0.715637 -1.59076,-3.61615 -0.608765,-4.96283 z "/>
<path id="rect3536-2" d="m20,103.862976l2,0l-14,20l-6,1l18,-21z"/>
<path id="rect3536-2-2-1-6" d="m 22,103.858 l 2,.0099 -8,19 -6,2 12,-21 v -0.009888 z "/>
<path id="rect3651" d="m 123,101.863 h 8 c 1.662,0 3,1.33801 3,3 v 3 c 0,1.66199 -1.338,3 -3,3 h -8 c -1.662,0 -3,-1.33801 -3,-3 v -3 c 0,-1.66199 1.338,-3 3,-3 z "/>
<path id="rect3699" d="m 78.0938,25.1443 c -2.47546,0.430908 -4.7541,0.944031 -6.71875,1.4375 l 3,29.2812 c 1.29102,0.237976 2.95671,0.533752 4.5,0.8125 l -.7812,-31.5312 z "/>
<path id="rect3699-1" d="m80.3125,24.769287c-0.421799,0.061096 -0.835678,0.120605 -1.25,0.1875l0.84375,31.90625c0.308548,0.05542 0.559952,0.099915 0.875,0.15625l-0.46875,-32.25z"/>
<path id="rect4571" d="m 6.5209,21.4965 l 23.0836,-2.3405 c 1.32227,-0.134094 2.4947,0.822449 2.62878,2.14477 l .5248,5.1754 c 0.134064,1.32227 -0.82251,2.49469 -2.14479,2.62878 l -23.0836,2.3405 c -1.32228,0.134094 -2.49472,-0.82251 -2.6288,-2.14477 l -.5248,-5.1754 c -0.134071,-1.32227 0.822502,-2.49469 2.14478,-2.62878 z "/>
<path id="path4595" d="m 6.6759,22.97 c -0.558426,0.05658 -0.895607,0.460571 -0.841293,0.996216 l .5264,5.1921 c 0.054314,0.535583 0.491692,0.892395 1.02729,0.838135 l 23.0692,-2.3391 c 0.535599,-0.054321 0.892441,-0.491699 0.838135,-1.02728 l -.5264,-5.1921 c -0.054321,-0.535583 -0.465714,-0.863647 -1.02416,-0.807068 l -23.0692,2.3391 z "/>
<path id="path4621" d="m 46.395,60.3815 c 1.03722,3.35419 -4.62149,8.08313 -12.6391,10.5624 -8.01756,2.47925 -15.3579,1.77002 -16.3951,-1.58417 -1.03721,-3.35419 4.62148,-8.08313 12.639,-10.5624 8.01756,-2.47925 15.3579,-1.77002 16.3951,1.58417 z "/>
<path id="path4621-9" d="m 62.1104,16.6962 c -1.09349,-1.39593 3.7959,-4.01855 10.9208,-5.85785 7.12485,-1.83923 13.7871,-2.19861 14.8806,-0.802673 1.09349,1.39593 -3.7959,4.01855 -10.9208,5.85785 -7.12486,1.83923 -13.7871,2.19861 -14.8806,0.802673 z "/>
<path id="path3236-8-4" d="m 88,100.613 c -2.05325,0 -3.25,1.19672 -3.25,3.25006 0,2.0531 1.19675,3.25 3.25,3.25 2.05324,0 3.25,-1.1969 3.25,-3.25 0,-2.05335 -1.19676,-3.25006 -3.25,-3.25006 z "/>
<path id="path3260-2-1" d="m 43,110.3533 c -0.579086,0 -1.00969,0.430664 -1.00969,1.00977 0,0.578979 0.430603,1.00964 1.00969,1.00964 0.579071,0 1.00969,-0.430664 1.00969,-1.00964 0,-0.579102 -0.430618,-1.00977 -1.00969,-1.00977 z "/>
<path id="rect4735" d="m 25.0027,28.1882 l 4.125,-.4062 -.7188,-7.0312 -4.125,.4062 .7188,7.0312 z "/>
<path id="rect4735-2" d="m 23.409,28.3445 l .9688,-.0937 -.625,-7.0312 -.9688,.0937 .625,7.0312 z "/>
<path id="path3260-1" d="m 41.1695,99.5419 c -5.52799,0 -9.97275,4.4447 -9.97275,9.97266 0,0.588257 0.071777,1.16577 0.16832,1.72534 0.255859,-5.97363 5.13269,-10.7092 11.172,-10.7092 1.65134,0 3.19992,0.374512 4.60765,1.00989 -1.66328,-1.24359 -3.72719,-1.99866 -5.97522,-1.99866 z "/>
<path id="path3260-1-3" d="m 43.6284,123.7386 c 5.52799,0 9.97273,-4.44482 9.97273,-9.97278 0,-0.588135 -0.071762,-1.16577 -0.16832,-1.72522 -0.255859,5.97351 -5.13269,10.7091 -11.172,10.7091 -1.65135,0 -3.19994,-0.374512 -4.60767,-1.00989 1.66327,1.24365 3.72719,1.99878 5.97523,1.99878 z "/>
<path id="path3260-1-3-8" d="m 87.7277,118.715 c -7.69571,0 -13.8834,-6.18774 -13.8834,-13.8834 0,-0.818726 0.099915,-1.6228 0.234314,-2.40173 0.356201,8.31592 7.1454,14.9086 15.5529,14.9086 2.29892,0 4.45476,-0.521362 6.41451,-1.40588 -2.31551,1.73132 -5.18875,2.78247 -8.31833,2.78247 z "/>
<path id="path3260-1-4" d="m 42.0159,102.6168 c -4.10171,0 -7.3997,3.29797 -7.3997,7.39966 0,0.436401 0.053253,0.86499 0.124893,1.28015 0.18985,-4.43237 3.80843,-7.94617 8.28954,-7.94617 1.2253,0 2.37434,0.277954 3.41885,0.749512 -1.23413,-0.922852 -2.76555,-1.48315 -4.43358,-1.48315 z "/>
<path id="path3260-1-3-8-3" d="m 88.2553,113.5765 c -5.11484,0 -9.22745,-4.11255 -9.22745,-9.22742 0,-0.544189 0.066406,-1.07861 0.155746,-1.59631 0.23674,5.5271 4.7491,9.90881 10.3371,9.90881 1.52794,0 2.9608,-0.346436 4.26334,-0.934448 -1.53899,1.15063 -3.44865,1.84937 -5.5287,1.84937 z "/>
<path id="path5092" d="m 58.2379,57.1838 c 1.94612,5.16058 3.18918,11.2617 3.48668,17.8385 0.319046,7.05304 -0.508636,13.6637 -2.20511,19.2245 2.97478,-4.32989 4.70937,-11.282 4.35751,-19.0604 -0.335693,-7.42096 -2.52747,-13.9078 -5.63908,-18.0027 z "/>
<path id="rect6562" d="m 141.399,95.863 h 95.202 c 4.39902,0 4.39902,8.00006 0,8.00006 h -95.202 c -4.39903,0 -4.39903,-8.00006 0,-8.00006 z "/>
<path id="path7329" d="m 141,96.863 c -3,0 -3,6.00006 0,6.00006 9,0 88,0 96,0 3,0 3,-6.00006 0,-6.00006 -8,0 -87,0 -96,0 z "/>
<path id="path3167-4-0" d="m 184.8716,111.4874 c 0,9.66504 -7.83502,17.5 -17.5,17.5 -9.66498,0 -17.5,-7.83496 -17.5,-17.5 0,-9.66504 7.83502,-17.5 17.5,-17.5 9.66498,0 17.5,7.83496 17.5,17.5 z "/>
<path id="path3260-28" d="m 167.3716,96.678 c -8.21069,0 -14.8094,6.59875 -14.8094,14.8094 0,8.21069 6.59868,14.8093 14.8094,14.8093 8.21072,0 14.8094,-6.59863 14.8094,-14.8093 0,-8.21069 -6.59866,-14.8094 -14.8094,-14.8094 z "/>
<path id="path3260-2-6" d="m 167.3716,105.1874 c -3.61316,0 -6.29999,2.68689 -6.29999,6.30005 0,3.61316 2.68683,6.29993 6.29999,6.29993 3.61319,0 6.29999,-2.68677 6.29999,-6.29993 0,-3.61316 -2.6868,-6.30005 -6.29999,-6.30005 z "/>
<path id="path3260-1-4-2-0" d="m 167.9279,120.3945 c 4.10172,0 7.39969,-3.29785 7.39969,-7.39966 0,-0.436401 -0.053284,-0.86499 -0.124878,-1.28015 -0.18985,4.43237 -3.80841,7.94617 -8.28955,7.94617 -1.22528,0 -2.37433,-0.277954 -3.41882,-0.74939 1.23413,0.922729 2.76553,1.48303 4.43356,1.48303 z "/>
<path id="path3260-2-1-8" d="m 167.3716,110.4777 c -0.579071,0 -1.0097,0.430664 -1.0097,1.00964 0,0.579102 0.430634,1.00977 1.0097,1.00977 0.579071,0 1.0097,-0.430664 1.0097,-1.00977 0,-0.578979 -0.430634,-1.00964 -1.0097,-1.00964 z "/>
<path id="path3260-1-6" d="m 165.541,99.6663 c -5.52799,0 -9.97275,4.44482 -9.97275,9.97278 0,0.588135 0.071808,1.16565 0.16832,1.72522 0.255875,-5.97363 5.13271,-10.7091 11.172,-10.7091 1.65134,0 3.19992,0.374512 4.60767,1.00989 -1.6633,-1.24365 -3.7272,-1.99878 -5.97525,-1.99878 z "/>
<path id="path3260-1-3-5" d="m 168,123.863 c 5.52802,0 9.97275,-4.44482 9.97275,-9.97266 0,-0.588257 -0.071777,-1.16577 -0.168335,-1.72534 -0.255829,5.97363 -5.13269,10.7091 -11.172,10.7091 -1.65134,0 -3.19995,-0.374512 -4.60767,-1.00989 1.66327,1.24365 3.72717,1.99878 5.97522,1.99878 z "/>
<path id="path3260-1-4-0" d="m 166.3874,102.7412 c -4.10172,0 -7.39972,3.29797 -7.39972,7.39966 0,0.436523 0.053223,0.86499 0.124908,1.28027 0.18985,-4.43237 3.80844,-7.94617 8.28955,-7.94617 1.22528,0 2.37433,0.277832 3.41885,0.74939 -1.23413,-0.922852 -2.76556,-1.48315 -4.43359,-1.48315 z "/>
<path id="path3167-4-0-0" d="m 229.8716,111.4874 c 0,9.66504 -7.83502,17.5 -17.5,17.5 -9.66498,0 -17.5,-7.83496 -17.5,-17.5 0,-9.66504 7.83502,-17.5 17.5,-17.5 9.66498,0 17.5,7.83496 17.5,17.5 z "/>
<path id="path3260-28-0" d="m 212.3716,96.678 c -8.21069,0 -14.8094,6.59875 -14.8094,14.8094 0,8.21069 6.59869,14.8093 14.8094,14.8093 8.21072,0 14.8094,-6.59863 14.8094,-14.8093 0,-8.21069 -6.59866,-14.8094 -14.8094,-14.8094 z "/>
<path id="path3260-2-6-6" d="m 212.3716,105.1874 c -3.61316,0 -6.29999,2.68689 -6.29999,6.30005 0,3.61316 2.68683,6.29993 6.29999,6.29993 3.61319,0 6.29999,-2.68677 6.29999,-6.29993 0,-3.61316 -2.6868,-6.30005 -6.29999,-6.30005 z "/>
<path id="path3260-1-4-2-0-1" d="m 212.9279,120.3945 c 4.10172,0 7.39969,-3.29785 7.39969,-7.39966 0,-0.436401 -0.053284,-0.86499 -0.124878,-1.28015 -0.18985,4.43237 -3.80841,7.94617 -8.28955,7.94617 -1.22528,0 -2.37433,-0.277954 -3.41882,-0.74939 1.23413,0.922729 2.76553,1.48303 4.43356,1.48303 z "/>
<path id="path3260-2-1-8-3" d="m 212.3716,110.4777 c -0.579071,0 -1.0097,0.430664 -1.0097,1.00964 0,0.579102 0.430634,1.00977 1.0097,1.00977 0.579071,0 1.0097,-0.430664 1.0097,-1.00977 0,-0.578979 -0.430634,-1.00964 -1.0097,-1.00964 z "/>
<path id="path3260-1-6-8" d="m 210.541,99.6663 c -5.52799,0 -9.97275,4.44482 -9.97275,9.97278 0,0.588135 0.071808,1.16565 0.168304,1.72522 0.25589,-5.97363 5.13272,-10.7091 11.172,-10.7091 1.65134,0 3.19992,0.374512 4.60767,1.00989 -1.6633,-1.24365 -3.7272,-1.99878 -5.97525,-1.99878 z "/>
<path id="path3260-1-3-5-9" d="m 213,123.863 c 5.52802,0 9.97275,-4.44482 9.97275,-9.97266 0,-0.588257 -0.071777,-1.16577 -0.168335,-1.72534 -0.255829,5.97363 -5.13269,10.7091 -11.172,10.7091 -1.65134,0 -3.19995,-0.374512 -4.60767,-1.00989 1.66327,1.24365 3.72717,1.99878 5.97522,1.99878 z "/>
<path id="path3260-1-4-0-3" d="m 211.3874,102.7412 c -4.10172,0 -7.39972,3.29797 -7.39972,7.39966 0,0.436523 0.053223,0.86499 0.124908,1.28027 0.18985,-4.43237 3.80844,-7.94617 8.28955,-7.94617 1.22528,0 2.37433,0.277832 3.41885,0.74939 -1.23413,-0.922852 -2.76556,-1.48315 -4.43359,-1.48315 z "/>
</g>
</g>
</g>
</g>
</svg>
