<?xml version='1.0' encoding='utf-8'?>
<svg xmlns="http://www.w3.org/2000/svg" enable-background="new" viewBox="0 0 361.93 338.61"> <g transform="translate(-7.6119 -7.7465)" stroke="#000"> <path d="m264.37 143.75c-22.687 1.4282-45.656 10.986-64.325 23.465-44.286 29.605-64.063 132.17-116.79 124.57-7.3248-1.0555-10.127-3.8524-10.89-8.4324 12.159-14.032 33.138-43.543 20.431-68.25-16.434-31.954-39.46-3.1638-42.595 1.0119-0.26554-0.15859-0.56751-0.35687-1.0136-0.60706-4.0724-2.284-15.187-7.8009-24.513-5.8236-6.9947 1.483-12.988 7.1726-14.247 21.603-2.512 28.782 30.643 48.557 46.623 56.365 0.51165 5.2231 1.3272 10.915 2.3317 17.395 1.3324 8.5959 11.111 20.819 18.751 24.978 40.91 22.269 85.619 11.419 132.06 7.8478 40.67-3.1271 86.642 7.5472 121.62-13.438 15.511-9.306 26.211-27.256 30.651-44.791 7.3406-28.986 6.2355-63.684-9.3196-89.221-14.494-23.795-42.363-41.468-69.88-45.839-6.2098-0.98632-12.546-1.2375-18.898-0.83763z" fill="#fff" stroke-linecap="round" stroke-linejoin="round" stroke-width="5.3721"/> <path transform="matrix(.37229 .01804 -.01804 .37229 159.81 125.33)" d="m486.89 432.13c0 8.9263-7.2362 16.162-16.162 16.162s-16.162-7.2362-16.162-16.162 7.2362-16.162 16.162-16.162 16.162 7.2362 16.162 16.162z" fill="#fff" stroke-linejoin="round" stroke-width="14.413"/> <path d="m248.03 174.99c1.4477 4.0299 7.3057 4.0313 12.569 2.0039 2.977-1.1468 5.7218-3.8352 5.8958-6.8024" fill="none" stroke-linecap="round" stroke-width="3.5752"/> <path d="m173.7 94.274c9.5976 5.3358 17.416 10.269 24.441 15.144s13.295 9.6697 19.643 15.032c3.1738 2.6814 6.3617 5.5111 9.6118 8.6189s6.5658 6.4926 9.9165 10.33 6.7446 8.1262 9.9877 13.115 6.3534 10.671 8.7832 17.435c-0.35327-3.9557-1.0621-7.631-2.0034-11.083s-2.1158-6.6805-3.4386-9.7298c-2.6457-6.0984-5.8666-11.486-9.2866-16.413s-7.0496-9.3902-10.746-13.556-7.4652-8.034-11.282-11.724c-7.6336-7.3797-15.445-14.06-23.805-20.731s-17.272-13.329-27.363-20.47c-5.8474-2.4938-10.019-4.8444-12.817-7.207s-4.2251-4.7231-4.6516-6.8851 0.14554-4.1153 1.3319-5.502 2.9886-2.1976 5.0033-2.0574c1.6966 0.24136 2.6975-0.19759 3.1045-1.0408s0.21735-2.0908-0.49178-3.417c-1.4183-2.6524-4.938-5.6376-9.8539-5.9079-1.5693 1.1993-3.8612 1.1156-6.4108 0.29035s-5.3671-2.3932-7.9631-4.278-4.9778-4.0907-6.4872-6.2717-2.1291-4.3532-1.08-6.1015c1.1588-0.94629 1.1742-2.4382 0.42848-4.0754s-2.2652-3.4136-4.1759-4.8573-4.2183-2.5486-6.3984-2.8615-4.2194 0.17058-5.4952 1.8004c-1.3009 1.7154-1.6761 3.8666-1.8029 6.1116s-0.0139 4.5875-0.2756 6.7424-0.88937 4.1194-2.443 5.6582-4.0073 2.6413-8.1145 3.2189c-2.9122-0.51721-6.7626-1.7819-11.074-3.1092-2.1559-0.66366-4.4237-1.3446-6.7-1.9709s-4.5614-1.1981-6.7083-1.6559c-4.2939-0.91543-8.0388-1.3705-9.7323-0.99809-0.84672 0.18618-1.1757 0.5773-0.84815 1.2249s1.316 1.5507 2.9894 2.7839c2.712 1.6692 4.7428 3.561 5.825 5.3585s1.2317 3.4963 0.19563 4.8318c-0.51802 0.66772-1.3334 1.2457-2.4997 1.712s-2.6822 0.82044-4.6373 1.0543-4.3469 0.34669-7.3315 0.35365-6.5575-0.09337-10.995-0.24553c-1.6924 1.082-2.3201 1.981-2.1068 2.7133s1.2631 1.3009 2.8838 1.7611 3.8093 0.81394 6.3144 1.1213 5.3256 0.56934 8.2522 0.83005c5.8532 0.52143 12.094 1.0632 17.579 1.6858s10.246 1.3112 13.494 1.836c3.544 0.72324 6.0568 1.4765 7.8369 2.1708s2.8221 1.3331 3.3285 1.9004c1.0129 1.1347-0.11142 1.9806-2.1366 2.7301s-4.9708 1.4247-7.6322 2.1771-5.0296 1.5738-5.8588 2.4743c-5.66 3.4073-12.062 6.8664-17.056 11.101-2.4969 2.1171-4.6411 4.4202-6.2528 7.0104s-2.6872 5.4644-3.2002 8.7937c0.89483 1.7307 1.7916 3.058 2.7473 4.0142s1.969 1.5422 3.054 1.8278c2.17 0.57102 4.6395-0.06035 7.2416-1.1588s5.3228-2.65 7.8666-3.9908 4.9082-2.4765 6.7923-2.8602c6.282-2.6413 12.747-5.0071 19.819-6.2115s14.762-1.2559 23.443 0.91848c-3.6736 1.8462-5.5314 5.4602-5.9913 9.8346s0.47595 9.5224 2.5644 14.458c2.8688 0.58548 4.4798-0.0416 5.5081-1.2802s1.4733-3.0958 1.9922-4.9438 1.1109-3.6871 2.4387-4.8143 3.4009-1.5446 6.8368-0.45805c3.7227 0.41021 6.7143 1.7842 9.0047 3.5206s3.874 3.8357 4.7527 5.8154 1.0538 3.8399 0.53811 5.2187-1.7161 2.2828-3.6417 2.4205c-1.1709 0.93822-0.65518 3.2776 0.70949 5.9866s3.5458 5.7855 5.6584 8.4345c1.0563 1.3245 2.0981 2.5465 3.0625 3.5823s1.8518 1.8865 2.6481 2.4624 1.5052 0.87805 2.13 0.79389 1.1712-0.55404 1.5843-1.5576c-0.63374-3.281-1.3803-6.9241-2.0512-10.71s-1.2591-7.7124-1.5601-11.447-0.31556-7.2758 0.13661-10.222 1.3718-5.2984 2.9217-6.6054l1e-5 9e-6z" fill="#fff" stroke-linecap="round" stroke-linejoin="round" stroke-width="4.469"/> </g> </svg>