<?xml version='1.0' encoding='utf-8'?>
<svg xmlns="http://www.w3.org/2000/svg" viewBox="0 0 640 480"> <path d="m49.388 220.96c0 106.28 69.546 192.48 155.34 192.48 85.762 0 155.31-86.194 155.31-192.48 0-106.28-69.546-192.48-155.31-192.48-85.789 0-155.34 86.195-155.34 192.48z" fill-rule="evenodd"/> <path d="m52.692 221.3c0 104.51 68.36 189.28 152.68 189.28 84.321 0 152.68-84.768 152.68-189.28 0-104.54-68.36-189.31-152.68-189.31-84.321 0-152.68 84.768-152.68 189.31z" fill="#fff"/> <path d="m235.18 179.59c-1.3277 4.822-6.8076 7.504-12.231 5.935-5.3958-1.54-8.6728-6.705-7.3452-11.526 1.3554-4.822 6.8353-7.476 12.26-5.935 5.3958 1.54 8.6719 6.705 7.3165 11.526z" fill-rule="evenodd"/> <path d="m227.86 175.74c-0.42474 1.483-1.9504 2.368-3.4177 1.94-1.4683-0.429-2.3167-1.969-1.9207-3.453 0.42476-1.483 1.9485-2.339 3.4177-1.939 1.4692 0.42801 2.3167 1.969 1.9207 3.452z" fill="#fff"/> <path d="m176.36 171.11c-2.4573 4.479-0.45245 10.328 4.4632 13.096 4.9146 2.739 10.903 1.313 13.333-3.167 2.4573-4.479 0.45245-10.328-4.4632-13.067-4.9156-2.74-10.876-1.341-13.333 3.138z" fill-rule="evenodd"/> <path d="m181.64 172.14c-0.7346 1.369-0.22572 3.053 1.1019 3.795 1.3276 0.74101 3.0226 0.256 3.7562-1.085 0.73462-1.341 0.25446-3.053-1.0722-3.795-1.3554-0.742-3.0226-0.256-3.786 1.085z" fill="#fff"/> <g fill-rule="evenodd"> <path d="m170.4 154.11c2.1474-0.82698 6.8363-0.97101 9.9153-1.541 2.9939-0.74199 5.7344-2.283 7.9095-2.311 2.0059 0 4.2087 1.455 4.4344 2.397 0.1693 0.88402-1.0732 2.083-3.4177 2.938-2.4573 0.799-8.164 1.284-10.903 1.684-2.683 0.31302-3.8414-0.22897-5.3393 0.257-1.7227 0.485-3.4741 2.311-4.378 2.396-0.93162-0.11401-1.2989-1.483-0.98904-2.454 0.28314-0.99699 0.59401-2.595 2.7682-3.366z"/> <path d="m195.32 357.34c-6.271-0.97104-8.757-0.686-15.932-3.881-7.1749-3.252-18.758-8.702-26.724-15.235-7.9373-6.563-14.208-13.753-20.508-23.768-6.3284-10.043-12.909-23.768-17.005-35.864-4.0681-12.126-6.4403-23.938-7.26-36.15 0.70591-2.083 1.2148-4.45 1.4128-7.219 0.16929-2.854 0.28217-8.445-0.19802-9.415-0.64946-0.97102-2.09 0.54199-2.9098 3.424-0.76333 2.796-0.50888 8.987-1.7514 13.182-1.3276 4.108-5.1126 8.416-6.1304 11.498-1.0168 2.996-0.62077 5.593-0.22574 6.478 0.1693 0.827 0.81878 0.31299 1.9484-1.541 1.1584-1.997 2.7969-5.364 5.0285-10.215 1.5256 12.041 4.4354 23.91 8.8421 36.15 4.4067 12.239 9.8589 26.106 17.345 36.663 7.5135 10.528 18.56 19.345 26.92 25.564 8.2204 5.991 15.961 8.16 21.921 10.586 5.7908 2.282 8.6719 2.967 13.107 3.595 4.4344 0.57101 8.955 0.57101 13.446 0 4.3503-0.62799 7.2313-1.313 13.107-3.595 5.9314-2.426 13.643-4.595 21.948-10.586 8.1917-6.22 19.407-15.036 26.892-25.564 7.4293-10.557 12.853-24.424 17.345-36.663 4.379-12.24 7.2878-24.109 8.8422-36.15 0.87619 3.624 2.289 5.991 4.2364 7.419 1.9207 1.369 7.2333 2.083 7.3175 0.827-0.11288-1.455-5.3106-5.792-7.3175-8.931-2.0613-3.196-3.4741-6.021-4.3503-9.786-0.84647-3.938-0.027679-11.014-0.59302-12.754-0.79105-1.654-2.5147 1.084-3.1919 2.824-0.59503 1.712-0.59503 4.479-0.33957 6.99 0.19699 2.396 0.59302 4.765 1.4118 7.219-0.81879 12.212-3.1919 24.024-7.2591 36.15-4.0968 12.097-10.678 25.821-16.976 35.864-6.3284 10.015-12.599 17.205-20.537 23.768-7.9659 6.533-19.548 11.983-26.722 15.235-7.1749 3.195-9.6609 2.91-15.932 3.881-6.27 0.97-2.9098 0.97-9.2085 0z"/> <path d="m58.709 178.59c-4.4344-1.142-8.8986-0.94101-13.502 0.59901-4.6889 1.484-10.537 3.51-14.18 8.617-3.785 5.078-7.4858 13.695-7.7115 21.997-0.25444 8.36 3.1919 20.314 6.5254 27.276 3.2761 6.734 7.062 10.928 13.333 13.354 6.271 2.368 14.18 2.539 24.039 0.742l-8.5036-72.585z"/> </g> <path d="m55.969 256.56c7.0907 2.197 12.09 1.541 15.226-1.968 3.0503-3.652 4.0958-8.304 3.2484-19.231-0.96035-11.127-5.875-35.949-8.6431-46.277-2.8811-10.215-5.4235-15.122-8.0511-14.837-0.25443 2.938-0.84748 5.078-2.0058 6.533-1.1861 1.342-2.5989 1.313-4.774 1.998-2.3157 0.68498-5.8185 0.79898-8.559 2.196-2.8246 1.398-5.5364 2.197-7.9095 6.021-2.4296 3.766-5.5086 10.186-6.1868 16.52-0.73461 6.277 0.59306 15.407 1.9207 20.771 1.2999 5.307 3.785 7.932 5.8195 10.842 1.9771 2.71 3.8701 4.564 6.1294 5.906 2.2316 1.255 4.8869 1.455 6.9769 2.025 1.9494 0.54302 3.7285-0.34198 4.9146 1.313 1.0752 1.599 1.8098 4.252 1.894 8.188z" fill="#fff"/> <path d="m352.07 179.84c4.4067-1.142 8.8689-0.94099 13.502 0.60001 4.6334 1.483 10.453 3.509 14.18 8.616 3.6721 5.079 7.4868 13.695 7.7393 21.998 0.085114 8.302-3.1919 20.372-6.5532 27.305-3.3622 6.733-7.1185 10.957-13.333 13.324-6.2987 2.368-14.209 2.539-24.039 0.74204l8.5035-72.585z" fill-rule="evenodd"/> <path d="m354.83 257.82c-7.1185 2.254-12.118 1.569-15.226-1.94-3.1355-3.681-4.1522-8.217-3.2771-19.23 0.87622-11.127 5.7908-35.949 8.6432-46.278 2.8256-10.243 5.3958-15.094 8.0511-14.865 0.22675 2.939 0.81882 5.079 2.0058 6.534 1.101 1.313 2.5415 1.369 4.7731 2.025 2.2593 0.62802 5.7067 0.79901 8.5877 2.169 2.7404 1.313 5.4799 2.254 7.9085 6.02 2.3731 3.767 5.3671 10.187 6.1591 16.521 0.64948 6.276-0.64948 15.379-1.9207 20.8-1.3564 5.335-3.8424 7.874-5.8196 10.813-2.0612 2.683-3.9265 4.622-6.1294 5.936-2.288 1.284-4.971 1.397-6.9769 1.996-2.0346 0.51498-3.8147-0.28401-4.9156 1.342-1.1574 1.595-1.7792 4.277-1.8632 8.157z" fill="#fff"/> <g fill-rule="evenodd"> <path d="m54.33 205.07c-1.4118-0.457-3.0226-1.027-4.8305-0.82799-1.893 0.172-4.378 0-6.0453 2.226-1.7227 2.282-3.9265 7.19-4.0117 10.87-0.14059 3.51 1.6672 8.047 3.5879 10.187 1.893 2.055 5.8185 2.567 7.8531 2.083 2.0058-0.68501 2.9939-5.107 4.1523-5.564 1.0732-0.45599 2.5147 1.37 2.3444 3.054-0.198 1.626-0.96035 5.849-3.588 6.818-2.8533 0.94199-9.5193 0.85599-12.684-1.369-3.1919-2.368-5.4235-7.988-5.8185-12.555-0.42375-4.649 1.2425-11.498 3.5879-14.921 2.288-3.396 7.0056-5.051 10.226-5.421 3.2484-0.457 7.2026 1.455 8.8134 2.653 1.3277 1.169 0.36732 3.623-0.25445 4.165-0.64946 0.343-1.9771-0.998-3.3335-1.398z"/> <path d="m351.95 205.07c1.3277-0.457 2.9375-1.027 4.8305-0.82799 1.8355 0.172 4.3215 0 6.0442 2.226 1.6673 2.282 3.8424 7.19 4.0117 10.87 0.057404 3.51-1.7227 8.047-3.588 10.187-1.9484 2.055-5.876 2.567-7.8531 2.083-2.09-0.68501-3.078-5.107-4.1522-5.564-1.1306-0.45599-2.5989 1.37-2.3444 3.054 0.11386 1.626 0.90387 5.849 3.588 6.818 2.7682 0.94199 9.4629 0.85599 12.684-1.369 3.1078-2.368 5.3394-7.988 5.8196-12.555 0.36731-4.649-1.2999-11.498-3.588-14.921-2.3721-3.396-7.0898-5.051-10.225-5.421-3.3335-0.457-7.2878 1.455-8.8134 2.653-1.4118 1.169-0.45145 3.623 0.25543 4.165 0.59106 0.343 1.9187-0.998 3.3315-1.398z"/> <path d="m201.81 12.447c-0.027695-3.11-1.4682-5.592-4.4344-7.504s-6.6106-4.137-13.22-3.909c-6.6383 0.257-14.266 2.026-26.186 5.307-12.005 3.281-30.141 6.306-44.915 14.18-14.803 7.933-29.606 17.919-43.023 32.87-13.39 15.008-26.157 31.613-36.638 56.236-10.48 24.709-20.564 64.482-25.649 90.475-5.0285 25.878-3.8414 44.452-4.4067 63.739-0.56531 19.26-0.50888 29.931 1.1019 50.901 1.6385 21.028 4.8869 58.633 8.5313 74.041 3.6721 15.207 3.8988 13.638 13.248 16.976 9.3788 3.339 15.395 3.995 26.722 5.022 11.385 1.026 29.887 1.142 40.79 1.112 10.876-0.057007 17.26 0.229 23.983-1.398 6.7235-1.654 13.841-4.337 15.988-8.359 2.1187-4.023 4.4632-3.538-3.3048-15.579-7.8808-12.211-32.598-38.717-43.276-56.521-10.565-17.774-15.452-32.526-19.83-49.274-4.3503-16.748-4.971-33.211-6.073-50.387-1.1019-17.177-1.2999-34.124-0.53661-51.785 6.27-1.798 11.412-4.138 15.423-7.02 3.983-2.967 6.469-4.964 8.5313-10.3 2.0336-5.449 3.1919-12.468 3.5879-21.712 10.819-4.736 18.672-9.245 23.983-13.638 5.169-4.423 6.1294-7.048 7.4581-12.811 1.2425-5.906 1.3276-13.096 0.25344-21.998 9.4352-0.685 16.779-2.226 22.344-4.736 5.4799-2.54 7.5699-5.821 10.734-10.3 3.2196-4.593 5.876-10.015 8.2768-16.72 3.7563 0.28599 6.9205-0.229 9.9154-1.655 2.881-1.484 5.3671-3.766 7.4571-6.962 6.1017-1.255 10.622-2.881 13.786-4.879 3.1068-2.026 4.7176-4.394 4.9433-7.218-0.70689 4.394 1.2435 7.732 6.074 10.015 4.8018 2.254 12.26 3.424 22.599 3.624 0.70493 1.883 2.5405 3.367 5.5077 4.451 2.9385 1.027 6.9502 1.712 12.148 1.94 3.389 8.931 7.2878 15.949 12.117 21.171 4.8027 5.193 11.385 8.16 16.272 10.015 4.774 1.769 8.7006 2.083 12.118 0.827-1.7227 9.273-1.7227 16.948 0 23.253 1.6386 6.22 4.7463 9.53 10.198 14.209 5.4789 4.651 12.739 9.159 22.315 13.638-0.14059 8.674 0.59399 15.208 2.2048 20.029 1.5247 4.65 2.8246 5.563 7.1749 8.36 4.3216 2.824 10.536 5.506 18.756 8.359 0.59308 9.473-0.11383 23.539-2.2325 42.854-2.1464 19.316-3.6721 49.561-10.452 72.243-6.9205 22.626-21.354 47.22-30.338 62.656-9.0402 15.235-18.079 21.57-23.418 28.588-5.368 6.82-8.5303 8.96-8.2768 12.812 0.28214 3.795 2.5711 7.704 9.9164 10.3 7.259 2.568 20.366 4.28 33.643 5.021 13.333 0.68597 33.36 1.342 45.479-1.112 12.005-2.625 19.718-3.624 26.186-14.209 6.2987-10.785 9.1531-30.586 11.836-49.274 2.5988-18.688 3.9265-38.005 3.8701-61.8-0.085144-24.024-1.3553-57.235-4.1245-80.261-2.8533-22.968-6.9779-41.313-12.684-56.236-0.19803-7.19-3.5028-17.405-9.9153-31.3-6.469-14.066-15.226-35.237-28.672-51.5-13.644-16.235-34.095-34.295-52.089-44.823-18.139-10.443-41.528-14.381-55.144-17.548-13.502-3.281-19.264-2.967-25.367-1.684-6.1858 1.256-9.8292 4.281-11.27 9.188z"/> </g> <path d="m199.58 28.824c-0.59306 5.079-0.53563 8.988 0.28313 12.041 0.73363 2.911 1.0455 4.451 4.4077 5.849 3.3048 1.37 11.213 2.254 15.45 2.768 4.2097 0.514 7.1472 0.57101 9.3501 0.28601-0.42377 2.739 0.84746 4.65 3.588 5.849 2.7404 1.112 7.062 1.483 12.966 1.112 0.085144 3.852 1.3286 7.646 3.8424 11.698 2.4286 4.023 6.9769 8.988 11.045 12.24 4.0384 3.139 8.3332 5.507 13.22 6.677 4.8305 0.999 11.186-0.028999 15.706 0 4.4344-0.085999 7.1739-0.94199 11.044 0.285 3.8988 1.284 9.7738 4.336 11.836 7.504 1.8355 3.053 0.14154 9.444-0.28217 11.156-0.50891 1.569-2.0059 0.171-2.2048-1.112-0.19702-1.255 1.5544-4.423 1.1019-6.42-0.50787-2.168-2.0335-4.223-4.1235-5.849-2.289-1.598-5.481-3.195-8.8134-3.595-3.3622-0.514-7.0056-0.2-11.044 0.82699-1.2712 3.195-1.7237 7.219-1.3564 11.955 0.33856 4.765 1.497 12.04 3.5879 16.434 2.0336 4.194 3.8127 5.821 8.8125 9.188 4.9997 3.424 11.864 7.019 20.933 11.127-0.22672 7.79 0.19702 13.81 1.3831 18.375 1.1296 4.395 1.695 5.735 5.5077 8.646 3.7573 2.882 10.989 6.563 16.808 8.845 5.678 2.226 12.118 1.884 17.373 4.708 5.1691 2.768 10.452 6.904 13.784 11.983 3.3048 5.021 6.469 12.439 5.7918 18.089-0.84653 5.563-8.4461 13.096-10.481 15.321-2.0901 2.026-2.9088-0.713-1.9207-2.511 0.99005-1.883 5.9611-5.051 7.7125-8.074 1.695-2.91 2.9374-5.82 2.2028-9.729-0.93164-4.166-4.2364-10.757-7.1739-14.495-2.9939-3.737-6.469-5.935-10.198-7.789-3.8127-1.939-7.7115-3.109-12.118-3.623-1.0732 18.802-1.9772 34.266-3.0226 47.048-1.0732 12.755-1.2148 16.978-3.0504 28.961-1.9207 11.955-4.1522 28.987-7.9947 41.97-3.8691 12.868-10.14 24.938-14.886 34.781-4.8582 9.7-9.3214 16.69-13.502 23.396-4.2098 6.62-6.4126 10.101-11.3 16.148-4.971 6.021-14.83 14.209-17.909 19.487-3.1078 5.079-3.4176 8.446-0.28217 11.413 3.1068 2.968 10.254 4.993 19.038 6.42 8.8432 1.313 22.091 1.684 33.333 1.654 11.187-0.143 23.814 0.314 33.079-1.939 9.1798-2.282 16.017-2.825 21.497-11.413 5.2542-8.816 7.769-24.737 10.481-40.373 2.6553-15.777 4.6324-34.038 5.5077-52.897 0.81973-18.917 0.67917-39.117-0.53564-59.29-1.3564-20.199-2.7692-40.029-7.1759-60.915-4.4631-21.113-11.948-45.537-19.293-64.025-7.4858-18.489-16.157-33.269-24.802-45.651-8.6728-12.326-16.242-19.002-26.751-27.847-10.649-8.959-22.994-18.774-36.383-25.051-13.503-6.277-32.627-9.587-43.531-12.24-10.904-2.71-15.988-3.88-21.242-3.852-5.2819-0.028-7.4858 1.455-10.198 3.566-2.7959 2.083-4.8294 4.993-6.3274 8.617-1.5811 3.479-2.4008 7.53-2.7682 12.266z" fill="#fff"/> <g fill-rule="evenodd"> <path d="m253.34 65.83c0.42377 1.513 2.09 4.994 4.1246 7.248 1.9494 2.225 5.2829 4.793 7.1749 5.849 1.7237 0.97001 3.588 0.256 3.3048-0.286-0.39508-0.71299-3.587-2.14-5.2255-3.624-1.6098-1.626-3.2196-3.737-4.4067-5.563-1.2425-1.883-2.2593-5.021-3.0504-5.564-0.87721-0.599-2.3177 0.34301-1.9217 1.94z"/> <path d="m268.76 79.354c0 0.685 0.56433 1.255 1.2426 1.255 0.70688 0 1.2435-0.57101 1.2435-1.255 0-0.713-0.53662-1.255-1.2435-1.255-0.67822 0-1.2426 0.542-1.2426 1.255z"/> <path d="m290.82 97.872c-0.19702 2.055-0.085114 8.246 1.102 11.955 1.1009 3.709 4.4057 8.332 5.7908 10.015 1.3277 1.569 2.8811 0.76999 2.486-0.54202-0.48016-1.455-3.8424-5.136-4.971-7.532-1.1584-2.34-1.5831-4.423-1.9207-6.677-0.45245-2.482 0.14154-6.306-0.2822-7.504-0.50986-1.284-2.0068-1.741-2.2048 0.285z"/> <path d="m301.02 121.38c0 0.685 0.5643 1.256 1.2435 1.256 0.67816 0 1.2425-0.571 1.2425-1.256s-0.56436-1.255-1.2425-1.255c-0.6792-0.001007-1.2435 0.57-1.2435 1.255z"/> <path d="m312.74 355.57c0 0.71396 0.53662 1.256 1.2425 1.256 0.67917 0 1.2158-0.54202 1.2158-1.256 0-0.68503-0.53659-1.255-1.2158-1.255-0.7059 0-1.2425 0.57098-1.2425 1.255z"/> <path d="m289.72 385.93c0.76331-1.797 3.8424-4.765 7.1759-8.901 3.2196-4.251 10.112-13.895 12.4-16.148 2.2593-2.254 2.3722-0.057983 1.1009 2.511-1.4405 2.567-6.073 8.388-9.0966 12.525-2.9939 4.052-6.9492 9.929-8.8125 11.697-2.09 1.512-3.4186 0.143-2.7682-1.684z"/> <path d="m283.79 391.49c0 0.685 0.5643 1.256 1.2435 1.256 0.67816 0 1.2425-0.57098 1.2425-1.256 0-0.685-0.56436-1.255-1.2425-1.255-0.67816 0-1.2435 0.57098-1.2435 1.255z"/> <path d="m255.26 87.344c0.64949 1.084 3.3048 3.195 5.7908 4.451 2.5998 1.113 6.9779 2.425 9.0966 2.511 1.8643-0.028984 3.5592-1.541 2.486-2.226-1.1861-0.713-6.468-0.88401-9.0966-1.94-2.7405-1.198-5.1968-4.28-6.6096-4.736-1.4128-0.486-2.4009 0.85501-1.6673 1.94z"/> <path d="m251.67 83.235c0 0.71299 0.56532 1.255 1.2435 1.255 0.7059 0 1.2435-0.542 1.2435-1.255 0-0.685-0.5376-1.255-1.2435-1.255-0.67818-0.001015-1.2435 0.57-1.2435 1.255z"/> <path d="m274.3 94.105c0 0.685 0.53662 1.255 1.2425 1.255 0.6792 0 1.2158-0.57101 1.2158-1.255 0-0.68401-0.53665-1.255-1.2158-1.255-0.70587 0-1.2425 0.571-1.2425 1.255z"/> <path d="m288.9 129.66c1.3564 1.541 5.8472 5.335 9.3501 7.532 3.5028 2.14 9.35 4.822 11.327 5.279 1.7514 0.399 1.5821-1.398-0.28214-2.768-1.9207-1.455-7.5422-3.88-10.763-5.849-3.2771-2.054-6.9205-5.421-8.5303-6.134-1.694-0.68501-2.4573 0.25699-1.1019 1.94z"/> <path d="m283.39 124.18c0 0.685 0.53662 1.255 1.2435 1.255 0.67718 0 1.2148-0.56998 1.2148-1.255 0-0.713-0.5376-1.255-1.2148-1.255-0.70691 0-1.2435 0.54201-1.2435 1.255z"/> <path d="m311.22 142.81c0 0.713 0.56433 1.255 1.2425 1.255 0.67822 0 1.2435-0.54201 1.2435-1.255 0-0.685-0.56531-1.255-1.2435-1.255-0.67816 0-1.2425 0.57001-1.2425 1.255z"/> <path d="m342.09 182.21c0.22665 3.623-0.33862 16.663-0.81879 20.314-0.59406 3.425-1.6098 2.683-1.9494 0.85602-0.39505-1.854-0.028717-7.989 0-11.698-0.028717-3.852-0.53665-8.959 0-10.585 0.48016-1.626 2.3444-2.539 2.7682 1.113z"/> <path d="m339.07 208.52c0 0.68597 0.53662 1.256 1.2435 1.256 0.67722 0 1.2425-0.57002 1.2425-1.256 0-0.68503-0.56531-1.255-1.2425-1.255-0.70688 0-1.2435 0.56998-1.2435 1.255z"/> </g> <path d="m178.08 48.083c3.5315-0.25699 6.5819-1.141 9.3788-2.768 2.7969-1.684 5.6215-4.223 7.1759-6.962 1.4118-2.796 0.79007-5.592 1.6375-9.472 0.81978-4.052 3.7008-9.901 3.3048-13.924-0.59306-4.023-1.3554-8.217-6.3274-9.729-5.1403-1.484-12.796-1.17-23.418 0.82699-10.65 1.94-26.892 5.935-39.688 10.871-12.825 4.822-25.338 10.1-36.666 18.375-11.356 8.303-21.61 19.345-30.876 31.157-9.3778 11.698-17.485 23.796-24.547 38.718s-12.373 32.241-17.345 50.102c-4.9998 17.774-9.6332 36.749-12.147 55.808-2.4573 19.002-2.683 39.146-2.7405 57.349-0.14158 18.061 1.0455 36.407 1.9207 50.416 0.70688 13.838 1.5257 21.028 2.7682 32.355s3.0226 26.734 4.6889 34.78c1.5534 7.875 1.893 9.444 4.9433 12.526 3.0513 2.967 7.6274 4.022 13.502 5.592 5.876 1.541 12.062 3.053 21.497 3.88 9.4342 0.685 24.773 0.85599 34.463 0.85599 9.4629 0.057007 15.706 0.34302 22.316-0.57098 6.5818-0.99802 13.7-3.052 17.09-5.278 3.2771-2.225 4.7453-3.224 2.7682-8.074-2.0623-5.021-8.8422-13.382-14.886-21.456-6.2146-8.16-14.548-16.548-21.497-26.706-6.9769-10.271-14.576-21.998-19.858-33.981-5.3106-12.04-9.1808-23.396-11.836-37.576-2.684-14.323-3.6444-31.043-4.4067-47.192-0.90391-16.12-1.1861-32.298-0.84749-48.988-6.864 1.112-12.796 3.11-17.909 6.105-5.2542 2.996-10.679 7.447-12.684 11.698-1.9494 4.137-0.56532 9.587 1.1019 13.381 1.695 3.823 7.3442 7.219 8.559 9.188 1.0168 1.826-0.59304 2.91-2.2039 1.94-1.6662-1.113-5.875-4.68-7.7115-8.074-1.9771-3.453-4.0107-7.847-3.5879-11.983 0.42373-4.194 2.6553-9.416 6.0452-12.811 3.3612-3.566 7.9947-5.393 13.784-7.789 5.7621-2.369 14.378-3.881 20.395-6.392 5.9611-2.597 11.469-5.05 14.886-8.901 3.2494-3.995 3.7573-9.616 4.6899-14.209 0.90392-4.651 1.2148-8.874 0.81878-13.096 4.8869-1.598 9.5193-3.795 14.35-6.933 4.7453-3.224 10.706-7.162 14.068-11.698 3.1642-4.594 4.4344-10.3 5.2255-15.036 0.76331-4.765 0.53661-9.016-0.56434-13.096-3.8414 0.143-7.4581 0.143-10.734 0-3.3048-0.31399-6.2987-2.083-9.0956-1.113-2.9949 1.027-7.1749 4.194-8.2768 6.962-1.0732 2.682 2.0346 7.447 1.9207 8.902-0.25444 1.255-1.893 0.542-2.7405-0.828-0.8752-1.398-2.7682-4.622-2.2038-7.247 0.53661-2.796 3.1355-6.733 5.5076-8.617 2.3167-1.797 4.7463-2.14 8.2768-2.226 3.4741-0.171 7.7115 0.856 12.4 1.113 4.6612 0.142 9.8589 0.599 15.141-0.28601 5.1978-1.056 11.498-2.539 15.734-5.564 4.1523-3.167 6.5254-8.388 9.0966-12.811 2.4296-4.422 4.4344-8.931 5.7908-13.638 4.5196 0.77 8.1917 0.456 11.553-0.828 3.3385-1.341 5.8235-3.652 7.9986-7.048z" fill="#fff"/> <g fill-rule="evenodd"> <path d="m90.997 127.52c2.0336-1.683 7.6838-3.909 10.734-6.676 3.023-2.853 5.565-8.417 7.175-9.758 1.469-1.37 2.542-0.143 1.921 1.684-0.706 1.712-3.39 6.334-5.763 8.902-2.458 2.625-5.9318 4.793-8.5594 6.391-2.7118 1.455-6.271 2.197-7.1749 2.226-0.9891-0.172-0.3951-1.171 1.6672-2.769z"/> <path d="m85.743 346.38c2.683 3.537 7.6551 12.211 12.966 18.659 5.2542 6.448 15.48 15.664 18.474 19.487 2.8533 3.737 2.289 4.908-0.81878 2.511-3.1355-2.624-12.288-11.412-17.656-17.547-5.4235-6.191-11.61-14.552-14.321-18.917-2.7405-4.308-2.2603-6.334-1.9494-6.962 0.19702-0.85501 0.53561-0.741 3.3048 2.769z"/> <path d="m133.17 92.993c0 0.68501 0.53659 1.255 1.2425 1.255 0.67819 0 1.2148-0.57101 1.2148-1.255 0-0.685-0.53659-1.256-1.2148-1.256-0.70592 0-1.2425 0.57101-1.2425 1.256z"/> <path d="m108.91 132.8c0 0.685 0.56532 1.255 1.2425 1.255 0.6782 0 1.2435-0.571 1.2435-1.255 0-0.68401-0.56532-1.255-1.2435-1.255-0.6772 0-1.2425 0.57002-1.2425 1.255z"/> <path d="m80.234 172.62c0 0.68599 0.56435 1.228 1.2425 1.228 0.67818 0 1.2425-0.54199 1.2425-1.228 0-0.71301-0.56531-1.255-1.2425-1.255s-1.2425 0.54199-1.2425 1.255z"/> <path d="m78.596 337.14c0 0.71399 0.5366 1.256 1.2425 1.256 0.67817 0 1.2148-0.54199 1.2148-1.256 0-0.68503-0.53661-1.255-1.2148-1.255-0.70592 0-1.2425 0.56998-1.2425 1.255z"/> <path d="m120.77 390.32c0 0.68399 0.53661 1.255 1.2148 1.255 0.70591 0 1.2425-0.57101 1.2425-1.255 0-0.686-0.53661-1.256-1.2425-1.256-0.67719 0-1.2148 0.57101-1.2148 1.256z"/> <path d="m122.69 92.907c0.64949-0.457 4.7453-0.056999 6.073 0 1.2999-0.056999 1.3564-0.65601 1.9207-0.257 0.53661 0.343 2.3444 1.598 1.3831 2.226-1.1574 0.514-6.1294 1.084-7.7115 0.82801-1.6653-0.429-2.3999-2.311-1.6653-2.797z"/> <path d="m91.534 140.81c1.2712-1.17 4.7176-2.482 7.1749-3.624 2.2316-1.255 5.3106-3.024 6.6096-3.338 1.2425-0.314 1.7227 0.71301 1.1019 1.655-0.73461 0.94102-2.4573 2.425-4.9433 3.909-2.5137 1.37-8.3333 4.137-9.9431 4.451-1.7237 0.17-1.2148-1.912 0-3.053z"/> <path d="m63.426 181.44c1.2712-1.169 4.7176-2.482 7.1749-3.623 2.2316-1.256 5.3106-3.024 6.6106-3.338 1.2425-0.34299 1.7227 0.77 1.1019 1.683-0.73463 0.97-2.4573 2.368-4.9433 3.881-2.5137 1.341-8.3333 4.223-9.9431 4.479-1.7237 0.115-1.2148-1.94-9.8e-4 -3.082z"/> <path d="m225.57 148.72c2.1197 0.742 5.7066 3.824 8.4748 5.393 2.6563 1.397 5.876 2.083 7.4867 3.48 1.5534 1.37 2.1464 3.881 1.7801 4.765-0.5376 0.74199-2.1762 0.91299-4.4919-0.028015-2.4009-1.141-7.0333-4.337-9.3213-5.963-2.3454-1.569-2.684-2.683-4.182-3.339-1.5811-0.76999-4.181-0.513-4.8582-1.083-0.67816-0.685-0.11287-1.998 0.81975-2.511 0.73265-0.54201 2.2009-1.512 4.2919-0.714z"/> </g> <text x="181.904" y="290.349" font-family="Arial" font-size="24" stroke-width="0" text-anchor="middle"/> </svg>